<svg xmlns="http://www.w3.org/2000/svg" width="300" height="105" color-interpolation-filters="sRGB" preserveAspectRatio="xMidYMid" version="1.0" viewBox="0 0 300 105"><g fill="#e69b41" class="iconlettersvg-g iconlettersvg"><g><g class="tp-name"><g><g style="mix-blend-mode:normal;paint-order:stroke fill markers"><g style="paint-order:stroke fill markers"><g class="name-imagesvg" style="paint-order:stroke fill markers"><g style="paint-order:stroke fill markers" transform="translate(3.1206 3.1285) translate(4.0616 .7652) scale(1.96)"><rect width="49.882" height="50" fill="#e69b41" fill-opacity="0" stroke-width="2" class="image-rect" style="paint-order:stroke fill markers"/><svg width="49.882" height="50" class="image-svg-svg primary" overflow="visible" style="paint-order:stroke fill markers" filtersec="colorsb7657958153" version="1.1"><svg stroke-opacity=".426" stroke-width="2.809" style="paint-order:stroke fill markers" version="1.1" viewBox="0 0 127.14 127.44"><title>资源 14</title><g stroke="#999" stroke-opacity=".426" stroke-width=".65"><path fill="#f5eff9" d="M 127.14,127.44 63.56,63.87 0,127.44 Z" filter="url(#filter40)" style="paint-order:stroke fill markers"/><path fill="#262930" d="M 127.14,127.44 V 0 L 63.56,63.87 Z" filter="url(#filter39)" style="paint-order:stroke fill markers"/><path fill="#865dff" d="m0 0v127.44l63.56-63.57z" filter="url(#filter41)" style="paint-order:stroke fill markers"/></g></svg></svg></g></g></g><g style="paint-order:stroke fill markers"><g class="name-imagesvg" style="paint-order:stroke fill markers"><g style="paint-order:stroke fill markers" transform="translate(3.1206 3.1285) translate(4.0616 .7652) scale(1.96) translate(44.882)"><rect width="50" height="50" fill="#e69b41" fill-opacity="0" stroke-width="2" class="image-rect" style="paint-order:stroke fill markers"/><svg width="50" height="50" class="image-svg-svg primary" overflow="visible" style="paint-order:stroke fill markers" filtersec="colorsb4757034354" version="1.1"><svg stroke-opacity=".426" stroke-width="2.908" style="paint-order:stroke fill markers" version="1.1" viewBox="0 0 131.94 131.94"><title>资源 25</title><g><path fill="#865dff" stroke="#999" stroke-opacity=".426" stroke-width=".673" d="m66 0.66849c26.694 0 50.447 15.412 60.662 40.074 10.215 24.662 4.4921 53.048-14.384 71.924-18.876 18.876-46.874 24.524-71.536 14.309-3.98-1.6485-8.6606-4.1696-12.983-7.1428-7.825-5.3822-14.576-11.823-14.576-14.255l-0.0074-79.152c-7.2e-5 -0.77107 0.91051-1.3957 1.7862-2.5867 8.1703-11.112 32.191-23.171 51.038-23.171z" filter="url(#filter38)" transform="translate(-1.0333e-6)" style="mix-blend-mode:normal;paint-order:stroke fill markers"/><path fill="#262930" d="m13.194 25.379-25.685 40.59 25.685 41.113z" transform="translate(-1.0333e-6)" style="mix-blend-mode:normal;paint-order:stroke fill markers"/><path fill="#865dff" d="m65.97 0.74152c26.694 0 50.274 15.456 60.489 40.118 10.215 24.662 4.5668 53.048-14.309 71.924-18.876 18.876-46.746 24.406-71.408 14.191-24.662-10.215-40.968-31.662-40.743-60.976 0.29443-38.335 29.519-65.258 65.97-65.258z" transform="translate(-1.0333e-6)" style="mix-blend-mode:normal;paint-order:stroke fill markers"/><path fill="#262930" stroke="#999" stroke-opacity=".426" stroke-width=".673" d="m66 0a65.95 65.95 0 0 1 46.48 112.75l-93.29-93.56a67 67 0 0 1 46.81-19.19z" filter="url(#filter37)" style="paint-order:stroke fill markers"/></g></svg></svg></g></g></g></g><g><g class="name-imagesvg" transform="translate(3.1206 3.1285) translate(4.0616 .7652) scale(1.96) translate(89.882)"><rect width="0" height="0" fill="#e69b41" fill-opacity="0" stroke-width="2" class="image-rect"/><svg width="56.823" height="50" class="image-svg-svg primary" filtersec="colorsb9114772040" overflow="visible" version="1.1"><svg overflow="visible" version="1.1" viewBox="0 0 144.83 127.44"><title>资源 3</title><g><path fill="#865dff" stroke="#999" stroke-width=".52" d="m0 127.44h50.38l47.07-83.06-25.18-44.38z" filter="url(#filter42)"/><path fill="#262930" stroke="#999" stroke-width=".39" d="m144.83 127.44h-50.38l-47.37-83.06 25.19-44.38z" filter="url(#filter43)"/><path fill="#f5eff9" d="M 72.27,88.76 97.45,44.38 72.27,0 47.08,44.38 Z" image-rendering="auto"/></g></svg></svg></g></g></g></g></g></g><defs v-gra="od"><filter id="filter37" width="1.024" height="1.024" x="-.013" y="-.012" color-interpolation-filters="sRGB"><feGaussianBlur stdDeviation=".401"/></filter><filter id="filter38" width="1.006" height="1.005" x="-.003" y="-.003" color-interpolation-filters="sRGB"><feGaussianBlur stdDeviation="0.001 0"/></filter><filter id="filter39" width="1.038" height="1.025" x="-.02" y="-.013" color-interpolation-filters="sRGB"><feGaussianBlur stdDeviation=".337"/></filter><filter id="filter40" width="1.025" height="1.038" x="-.013" y="-.02" color-interpolation-filters="sRGB"><feGaussianBlur stdDeviation=".336"/></filter><filter id="filter41" width="1.038" height="1.025" x="-.018" y="-.013" color-interpolation-filters="sRGB"><feGaussianBlur stdDeviation=".337"/></filter><filter id="filter42" width="1.027" height="1.021" x="-.014" y="-.012" color-interpolation-filters="sRGB"><feGaussianBlur stdDeviation=".397"/></filter><filter id="filter43" width="1.025" height="1.02" x="-.012" y="-.011" color-interpolation-filters="sRGB"><feGaussianBlur stdDeviation=".397"/></filter></defs></svg>