<?xml version="1.0" encoding="UTF-8"?>
<svg width="300" height="105" color-interpolation-filters="sRGB" data-v-6805eed4="" preserveAspectRatio="xMidYMid" version="1.0" viewBox="0 0 300 105" xmlns="http://www.w3.org/2000/svg">
 <g class="iconlettersvg-g iconlettersvg" transform="translate(3.1206 3.1285)" fill="#e69b41" data-v-6805eed4="">
  <g transform="translate(4.0616 .7652)">
   <g class="tp-name">
    <g transform="scale(1.96)">
     <g style="mix-blend-mode:normal;paint-order:stroke fill markers">
      <g style="paint-order:stroke fill markers">
       <g class="name-imagesvg" style="paint-order:stroke fill markers">
        <g style="paint-order:stroke fill markers">
         <rect class="image-rect" width="49.882" height="50" fill="#e69b41" fill-opacity="0" stroke-width="2" style="paint-order:stroke fill markers"/>
         <svg class="image-svg-svg primary" width="49.882" height="50" overflow="visible" style="paint-order:stroke fill markers" filtersec="colorsb7657958153" version="1.1">
          <svg stroke-opacity=".42634" stroke-width="2.8089" style="paint-order:stroke fill markers" version="1.1" viewBox="0 0 127.14 127.44">
           <title>资源 14</title>
           <g stroke="#999" stroke-opacity=".42634" stroke-width=".6502">
            <path d="M 127.14,127.44 63.56,63.87 0,127.44 Z" fill="#f5eff9" filter="url(#filter40)" style="paint-order:stroke fill markers"/>
            <path d="M 127.14,127.44 V 0 L 63.56,63.87 Z" fill="#262930" filter="url(#filter39)" style="paint-order:stroke fill markers"/>
            <path d="m0 0v127.44l63.56-63.57z" fill="#865dff" filter="url(#filter41)" style="paint-order:stroke fill markers"/>
           </g>
          </svg>
         </svg>
         <!---->
        </g>
       </g>
      </g>
      <g transform="translate(44.882)" style="paint-order:stroke fill markers">
       <g class="name-imagesvg" style="paint-order:stroke fill markers">
        <g style="paint-order:stroke fill markers">
         <rect class="image-rect" width="50" height="50" fill="#e69b41" fill-opacity="0" stroke-width="2" style="paint-order:stroke fill markers"/>
         <svg class="image-svg-svg primary" width="50" height="50" overflow="visible" style="paint-order:stroke fill markers" filtersec="colorsb4757034354" version="1.1">
          <svg stroke-opacity=".42634" stroke-width="2.9081" style="paint-order:stroke fill markers" version="1.1" viewBox="0 0 131.94 131.94">
           <title>资源 25</title>
           <g>
            <path transform="translate(-1.0333e-6)" d="m66 0.66849c26.694 0 50.447 15.412 60.662 40.074 10.215 24.662 4.4921 53.048-14.384 71.924-18.876 18.876-46.874 24.524-71.536 14.309-3.98-1.6485-8.6606-4.1696-12.983-7.1428-7.825-5.3822-14.576-11.823-14.576-14.255l-0.0074-79.152c-7.2e-5 -0.77107 0.91051-1.3957 1.7862-2.5867 8.1703-11.112 32.191-23.171 51.038-23.171z" fill="#865dff" filter="url(#filter38)" stroke="#999" stroke-opacity=".42634" stroke-width=".67316" style="mix-blend-mode:normal;paint-order:stroke fill markers"/>
            <path transform="translate(-1.0333e-6)" d="m13.194 25.379-25.685 40.59 25.685 41.113z" fill="#262930" style="mix-blend-mode:normal;paint-order:stroke fill markers"/>
            <path transform="translate(-1.0333e-6)" d="m65.97 0.74152c26.694 0 50.274 15.456 60.489 40.118 10.215 24.662 4.5668 53.048-14.309 71.924-18.876 18.876-46.746 24.406-71.408 14.191-24.662-10.215-40.968-31.662-40.743-60.976 0.29443-38.335 29.519-65.258 65.97-65.258z" fill="#865dff" style="mix-blend-mode:normal;paint-order:stroke fill markers"/>
            <path d="m66 0a65.95 65.95 0 0 1 46.48 112.75l-93.29-93.56a67 67 0 0 1 46.81-19.19z" fill="#262930" filter="url(#filter37)" stroke="#999" stroke-opacity=".42634" stroke-width=".67316" style="paint-order:stroke fill markers"/>
           </g>
          </svg>
         </svg>
         <!---->
        </g>
       </g>
      </g>
     </g>
     <g transform="translate(89.882)">
      <g class="name-imagesvg">
       <rect class="image-rect" width="0" height="0" fill="#e69b41" fill-opacity="0" stroke-width="2"/>
       <svg class="image-svg-svg primary" width="56.823" height="50" overflow="visible" filtersec="colorsb9114772040" version="1.1">
        <svg overflow="visible" version="1.1" viewBox="0 0 144.83 127.44">
         <title>资源 3</title>
         <g>
          <path d="m0 127.44h50.38l47.07-83.06-25.18-44.38z" fill="#865dff" filter="url(#filter42)" stroke="#999" stroke-width=".52016"/>
          <path d="m144.83 127.44h-50.38l-47.37-83.06 25.19-44.38z" fill="#262930" filter="url(#filter43)" stroke="#999" stroke-width=".39012"/>
          <path d="M 72.27,88.76 97.45,44.38 72.27,0 47.08,44.38 Z" fill="#f5eff9" image-rendering="auto"/>
         </g>
        </svg>
       </svg>
       <!---->
      </g>
     </g>
    </g>
   </g>
  </g>
 </g>
 <defs v-gra="od">
  <filter id="filter37" x="-.012781" y="-.011531" width="1.0243" height="1.0243" color-interpolation-filters="sRGB">
   <feGaussianBlur stdDeviation="0.40146347"/>
  </filter>
  <filter id="filter38" x="-.0028608" y="-.0025628" width="1.0057" height="1.0051" color-interpolation-filters="sRGB">
   <feGaussianBlur stdDeviation="0.001 0"/>
  </filter>
  <filter id="filter39" x="-.019943" y="-.012524" width="1.0378" height="1.025" color-interpolation-filters="sRGB">
   <feGaussianBlur stdDeviation="0.33695928"/>
  </filter>
  <filter id="filter40" x="-.012523" y="-.019933" width="1.025" height="1.0377" color-interpolation-filters="sRGB">
   <feGaussianBlur stdDeviation="0.33641244"/>
  </filter>
  <filter id="filter41" x="-.017837" y="-.012525" width="1.0378" height="1.025" color-interpolation-filters="sRGB">
   <feGaussianBlur stdDeviation="0.336924"/>
  </filter>
  <filter id="filter42" x="-.014352" y="-.011607" width="1.0272" height="1.0211" color-interpolation-filters="sRGB">
   <feGaussianBlur stdDeviation="0.39670596"/>
  </filter>
  <filter id="filter43" x="-.012049" y="-.010578" width="1.0252" height="1.0196" color-interpolation-filters="sRGB">
   <feGaussianBlur stdDeviation="0.39723516"/>
  </filter>
 </defs>
</svg>
