<?xml version="1.0" encoding="UTF-8"?>
<!DOCTYPE svg PUBLIC "-//W3C//DTD SVG 1.1//EN" "http://www.w3.org/Graphics/SVG/1.1/DTD/svg11.dtd">
<svg xmlns="http://www.w3.org/2000/svg" version="1.1" width="797px" height="924px" style="shape-rendering:geometricPrecision; text-rendering:geometricPrecision; image-rendering:optimizeQuality; fill-rule:evenodd; clip-rule:evenodd" xmlns:xlink="http://www.w3.org/1999/xlink">
<g><path style="opacity:0.938" fill="#020202" d="M 389.5,4.5 C 393.846,4.33432 398.179,4.50098 402.5,5C 525.461,75.1475 648.128,145.814 770.5,217C 773.869,219.365 776.036,222.532 777,226.5C 777.667,371.5 777.667,516.5 777,661.5C 776.529,663.246 775.862,664.913 775,666.5C 768.438,671.393 761.604,675.893 754.5,680C 636.964,747.933 519.298,815.6 401.5,883C 394.283,884.405 387.616,883.071 381.5,879C 261.33,809.081 140.997,739.414 20.5,670C 17.1309,667.635 14.9643,664.468 14,660.5C 13.3333,515.833 13.3333,371.167 14,226.5C 15.3498,221.815 18.1832,218.315 22.5,216C 144.602,144.954 266.935,74.4539 389.5,4.5 Z M 394.5,92.5 C 446.295,156.147 497.629,220.314 548.5,285C 443.832,285.833 339.165,285.667 234.5,284.5C 288.256,220.754 341.589,156.754 394.5,92.5 Z M 498.5,127.5 C 562.141,163.653 625.474,200.32 688.5,237.5C 664.445,250.613 640.278,263.613 616,276.5C 576.238,227.246 537.071,177.579 498.5,127.5 Z M 284.5,132.5 C 244.834,180.335 205.334,228.335 166,276.5C 144.5,263.667 123,250.833 101.5,238C 162.228,202.304 223.228,167.138 284.5,132.5 Z M 721.5,285.5 C 722.833,323.161 723.5,361.161 723.5,399.5C 723.333,437.5 723.167,475.5 723,513.5C 697.443,451.385 671.609,389.385 645.5,327.5C 670.895,313.472 696.229,299.472 721.5,285.5 Z M 69.5,287.5 C 92.3376,300.082 114.671,313.415 136.5,327.5C 114.435,385.528 92.268,443.528 70,501.5C 69.5,430.167 69.3333,358.834 69.5,287.5 Z M 223.5,341.5 C 335.5,341.333 447.5,341.5 559.5,342C 504.96,439.581 450.293,537.081 395.5,634.5C 337.387,537.271 280.054,439.605 223.5,341.5 Z M 177.5,379.5 C 231.238,471.091 285.238,562.591 339.5,654C 328.852,652.894 318.185,651.561 307.5,650C 234.869,637.839 162.203,626.006 89.5,614.5C 118.833,536.167 148.167,457.833 177.5,379.5 Z M 604.5,381.5 C 637.204,459.088 669.537,536.921 701.5,615C 617.96,629.441 534.294,643.108 450.5,656C 502.062,564.611 553.395,473.111 604.5,381.5 Z M 164.5,686.5 C 165.097,685.861 165.93,685.528 167,685.5C 233.749,696.764 300.583,707.431 367.5,717.5C 367.833,745.841 367.5,774.175 366.5,802.5C 299.39,763.378 232.057,724.712 164.5,686.5 Z M 622.5,685.5 C 624.199,685.34 625.866,685.506 627.5,686C 559.422,724.788 491.588,763.954 424,803.5C 423.5,774.835 423.333,746.169 423.5,717.5C 490.112,707.786 556.445,697.12 622.5,685.5 Z"/></g>
<g><path style="opacity:1" fill="#fafafa" d="M 423.5,36.5 C 423.973,37.9063 424.973,38.573 426.5,38.5C 457.824,56.4961 489.157,74.4961 520.5,92.5C 520.973,93.9063 521.973,94.573 523.5,94.5C 534.996,101.416 546.663,108.083 558.5,114.5C 558.973,115.906 559.973,116.573 561.5,116.5C 566.808,119.459 572.142,122.459 577.5,125.5C 577.973,126.906 578.973,127.573 580.5,127.5C 611.833,145.5 643.167,163.5 674.5,181.5C 674.973,182.906 675.973,183.573 677.5,183.5C 682.794,186.482 688.127,189.482 693.5,192.5C 693.973,193.906 694.973,194.573 696.5,194.5C 701.794,197.482 707.127,200.482 712.5,203.5C 712.973,204.906 713.973,205.573 715.5,205.5C 720.794,208.482 726.127,211.482 731.5,214.5C 731.973,215.906 732.973,216.573 734.5,216.5C 743.104,221.473 751.771,226.473 760.5,231.5C 761.833,372.833 761.833,514.167 760.5,655.5C 639.5,725.667 518.5,795.833 397.5,866C 395.934,866.765 394.601,866.598 393.5,865.5C 393.027,864.094 392.027,863.427 390.5,863.5C 372.46,853.149 354.46,842.816 336.5,832.5C 336.027,831.094 335.027,830.427 333.5,830.5C 282.883,801.859 232.55,772.859 182.5,743.5C 182.027,742.094 181.027,741.427 179.5,741.5C 129.294,713.456 79.4604,684.789 30,655.5C 29.1667,514.165 29.3333,372.832 30.5,231.5C 135.201,171.111 239.868,110.778 344.5,50.5C 346.848,50.4077 348.514,49.4077 349.5,47.5C 364.77,38.5265 380.104,29.5265 395.5,20.5C 404.595,26.3768 413.928,31.7101 423.5,36.5 Z M 394.5,92.5 C 341.589,156.754 288.256,220.754 234.5,284.5C 339.165,285.667 443.832,285.833 548.5,285C 497.629,220.314 446.295,156.147 394.5,92.5 Z M 498.5,127.5 C 537.071,177.579 576.238,227.246 616,276.5C 640.278,263.613 664.445,250.613 688.5,237.5C 625.474,200.32 562.141,163.653 498.5,127.5 Z M 284.5,132.5 C 223.228,167.138 162.228,202.304 101.5,238C 123,250.833 144.5,263.667 166,276.5C 205.334,228.335 244.834,180.335 284.5,132.5 Z M 721.5,285.5 C 696.229,299.472 670.895,313.472 645.5,327.5C 671.609,389.385 697.443,451.385 723,513.5C 723.167,475.5 723.333,437.5 723.5,399.5C 723.5,361.161 722.833,323.161 721.5,285.5 Z M 69.5,287.5 C 69.3333,358.834 69.5,430.167 70,501.5C 92.268,443.528 114.435,385.528 136.5,327.5C 114.671,313.415 92.3376,300.082 69.5,287.5 Z M 223.5,341.5 C 280.054,439.605 337.387,537.271 395.5,634.5C 450.293,537.081 504.96,439.581 559.5,342C 447.5,341.5 335.5,341.333 223.5,341.5 Z M 177.5,379.5 C 148.167,457.833 118.833,536.167 89.5,614.5C 162.203,626.006 234.869,637.839 307.5,650C 318.185,651.561 328.852,652.894 339.5,654C 285.238,562.591 231.238,471.091 177.5,379.5 Z M 604.5,381.5 C 553.395,473.111 502.062,564.611 450.5,656C 534.294,643.108 617.96,629.441 701.5,615C 669.537,536.921 637.204,459.088 604.5,381.5 Z M 164.5,686.5 C 232.057,724.712 299.39,763.378 366.5,802.5C 367.5,774.175 367.833,745.841 367.5,717.5C 300.583,707.431 233.749,696.764 167,685.5C 165.93,685.528 165.097,685.861 164.5,686.5 Z M 622.5,685.5 C 556.445,697.12 490.112,707.786 423.5,717.5C 423.333,746.169 423.5,774.835 424,803.5C 491.588,763.954 559.422,724.788 627.5,686C 625.866,685.506 624.199,685.34 622.5,685.5 Z"/></g>
<g><path style="opacity:1" fill="#757575" d="M 423.5,36.5 C 425.027,36.427 426.027,37.0937 426.5,38.5C 424.973,38.573 423.973,37.9063 423.5,36.5 Z"/></g>
<g><path style="opacity:1" fill="#a0a0a0" d="M 349.5,47.5 C 348.514,49.4077 346.848,50.4077 344.5,50.5C 345.659,48.7497 347.326,47.7497 349.5,47.5 Z"/></g>
<g><path style="opacity:0.923" fill="#020202" d="M 583.5,300.5 C 455.167,301.833 326.833,301.833 198.5,300.5C 264.173,221.828 329.84,143.161 395.5,64.5C 458.164,143.158 520.831,221.825 583.5,300.5 Z M 394.5,92.5 C 341.589,156.754 288.256,220.754 234.5,284.5C 339.165,285.667 443.832,285.833 548.5,285C 497.629,220.314 446.295,156.147 394.5,92.5 Z"/></g>
<g><path style="opacity:1" fill="#555555" d="M 358.5,71.5 C 358.672,70.5084 358.338,69.8417 357.5,69.5C 358.875,67.9302 360.541,67.0969 362.5,67C 360.93,68.3968 359.596,69.8968 358.5,71.5 Z"/></g>
<g><path style="opacity:1" fill="#5a5a5a" d="M 431.5,68.5 C 430.833,68.5 430.5,68.8333 430.5,69.5C 428.243,68.4382 427.077,66.7715 427,64.5C 428.992,65.3281 430.492,66.6614 431.5,68.5 Z"/></g>
<g><path style="opacity:0.943" fill="#020202" d="M 431.5,68.5 C 455.93,82.9328 480.597,96.9328 505.5,110.5C 505.973,111.906 506.973,112.573 508.5,112.5C 513.85,115.528 519.184,118.528 524.5,121.5C 524.973,122.906 525.973,123.573 527.5,123.5C 532.825,126.497 538.159,129.497 543.5,132.5C 543.973,133.906 544.973,134.573 546.5,134.5C 590.239,160.228 634.239,185.561 678.5,210.5C 678.973,211.906 679.973,212.573 681.5,212.5C 696.279,220.773 710.946,229.273 725.5,238C 687.223,258.054 649.056,278.221 611,298.5C 550.619,222.291 490.452,145.958 430.5,69.5C 430.5,68.8333 430.833,68.5 431.5,68.5 Z M 498.5,127.5 C 537.071,177.579 576.238,227.246 616,276.5C 640.278,263.613 664.445,250.613 688.5,237.5C 625.474,200.32 562.141,163.653 498.5,127.5 Z"/></g>
<g><path style="opacity:0.943" fill="#040404" d="M 357.5,69.5 C 358.338,69.8417 358.672,70.5084 358.5,71.5C 356.937,72.9448 355.604,74.6115 354.5,76.5C 352.413,77.5846 351.08,79.2512 350.5,81.5C 290.542,152.727 231.042,224.394 172,296.5C 171.311,297.357 170.478,298.023 169.5,298.5C 166.521,296.633 163.521,294.967 160.5,293.5C 160.027,292.094 159.027,291.427 157.5,291.5C 152.793,288.816 148.127,286.149 143.5,283.5C 143.027,282.094 142.027,281.427 140.5,281.5C 115.395,267.78 90.7283,253.28 66.5,238C 163.421,181.223 260.421,125.056 357.5,69.5 Z M 284.5,132.5 C 223.228,167.138 162.228,202.304 101.5,238C 123,250.833 144.5,263.667 166,276.5C 205.334,228.335 244.834,180.335 284.5,132.5 Z"/></g>
<g><path style="opacity:1" fill="#9e9e9e" d="M 354.5,76.5 C 353.92,78.7488 352.587,80.4154 350.5,81.5C 351.08,79.2512 352.413,77.5846 354.5,76.5 Z"/></g>
<g><path style="opacity:1" fill="#6f6f6f" d="M 520.5,92.5 C 522.027,92.427 523.027,93.0937 523.5,94.5C 521.973,94.573 520.973,93.9063 520.5,92.5 Z"/></g>
<g><path style="opacity:1" fill="#7c7c7c" d="M 505.5,110.5 C 507.027,110.427 508.027,111.094 508.5,112.5C 506.973,112.573 505.973,111.906 505.5,110.5 Z"/></g>
<g><path style="opacity:1" fill="#727272" d="M 558.5,114.5 C 560.027,114.427 561.027,115.094 561.5,116.5C 559.973,116.573 558.973,115.906 558.5,114.5 Z"/></g>
<g><path style="opacity:1" fill="#787878" d="M 524.5,121.5 C 526.027,121.427 527.027,122.094 527.5,123.5C 525.973,123.573 524.973,122.906 524.5,121.5 Z"/></g>
<g><path style="opacity:1" fill="#757575" d="M 577.5,125.5 C 579.027,125.427 580.027,126.094 580.5,127.5C 578.973,127.573 577.973,126.906 577.5,125.5 Z"/></g>
<g><path style="opacity:1" fill="#777777" d="M 543.5,132.5 C 545.027,132.427 546.027,133.094 546.5,134.5C 544.973,134.573 543.973,133.906 543.5,132.5 Z"/></g>
<g><path style="opacity:1" fill="#6e6e6e" d="M 674.5,181.5 C 676.027,181.427 677.027,182.094 677.5,183.5C 675.973,183.573 674.973,182.906 674.5,181.5 Z"/></g>
<g><path style="opacity:1" fill="#707070" d="M 693.5,192.5 C 695.027,192.427 696.027,193.094 696.5,194.5C 694.973,194.573 693.973,193.906 693.5,192.5 Z"/></g>
<g><path style="opacity:1" fill="#737373" d="M 712.5,203.5 C 714.027,203.427 715.027,204.094 715.5,205.5C 713.973,205.573 712.973,204.906 712.5,203.5 Z"/></g>
<g><path style="opacity:1" fill="#757575" d="M 678.5,210.5 C 680.027,210.427 681.027,211.094 681.5,212.5C 679.973,212.573 678.973,211.906 678.5,210.5 Z"/></g>
<g><path style="opacity:1" fill="#737373" d="M 731.5,214.5 C 733.027,214.427 734.027,215.094 734.5,216.5C 732.973,216.573 731.973,215.906 731.5,214.5 Z"/></g>
<g><path style="opacity:1" fill="#a0a0a0" d="M 738.5,257.5 C 738.56,256.957 738.893,256.624 739.5,256.5C 740.667,370.832 740.833,485.165 740,599.5C 739.283,598.956 738.783,598.289 738.5,597.5C 739.833,484.167 739.833,370.833 738.5,257.5 Z"/></g>
<g><path style="opacity:1" fill="#919191" d="M 54.5,258.5 C 53.3341,369.666 53.1674,480.999 54,592.5C 54.2321,591.263 54.7321,590.263 55.5,589.5C 55.7361,592.226 54.9028,594.559 53,596.5C 52.1667,483.499 52.3333,370.499 53.5,257.5C 54.1067,257.624 54.44,257.957 54.5,258.5 Z"/></g>
<g><path style="opacity:0.941" fill="#010101" d="M 54.5,258.5 C 77.9953,272.416 101.662,286.083 125.5,299.5C 125.973,300.906 126.973,301.573 128.5,301.5C 137.146,307.16 146.146,312.327 155.5,317C 156.574,317.739 157.241,318.739 157.5,320C 126.856,400.106 96.5226,480.272 66.5,560.5C 64.9348,562.509 63.9348,564.843 63.5,567.5C 60.8402,574.823 58.1735,582.156 55.5,589.5C 54.7321,590.263 54.2321,591.263 54,592.5C 53.1674,480.999 53.3341,369.666 54.5,258.5 Z M 69.5,287.5 C 69.3333,358.834 69.5,430.167 70,501.5C 92.268,443.528 114.435,385.528 136.5,327.5C 114.671,313.415 92.3376,300.082 69.5,287.5 Z"/></g>
<g><path style="opacity:0.945" fill="#010101" d="M 736.5,258.5 C 737.833,313.996 738.5,369.829 738.5,426C 738.5,482.001 738.167,537.834 737.5,593.5C 719.109,548.386 700.443,503.386 681.5,458.5C 680.925,455.088 679.592,452.088 677.5,449.5C 672.059,434.616 666.059,419.949 659.5,405.5C 659.065,402.843 658.065,400.509 656.5,398.5C 650.473,383.084 644.14,367.751 637.5,352.5C 636.925,349.088 635.592,346.088 633.5,343.5C 630.708,335.252 627.374,327.252 623.5,319.5C 623.709,318.914 624.043,318.414 624.5,318C 661.613,297.576 698.946,277.742 736.5,258.5 Z M 721.5,285.5 C 696.229,299.472 670.895,313.472 645.5,327.5C 671.609,389.385 697.443,451.385 723,513.5C 723.167,475.5 723.333,437.5 723.5,399.5C 723.5,361.161 722.833,323.161 721.5,285.5 Z"/></g>
<g><path style="opacity:1" fill="#2a2a2a" d="M 736.5,258.5 C 736.842,257.662 737.508,257.328 738.5,257.5C 739.833,370.833 739.833,484.167 738.5,597.5C 738.167,596.167 737.833,594.833 737.5,593.5C 738.167,537.834 738.5,482.001 738.5,426C 738.5,369.829 737.833,313.996 736.5,258.5 Z"/></g>
<g><path style="opacity:1" fill="#707070" d="M 140.5,281.5 C 142.027,281.427 143.027,282.094 143.5,283.5C 141.973,283.573 140.973,282.906 140.5,281.5 Z"/></g>
<g><path style="opacity:1" fill="#727272" d="M 157.5,291.5 C 159.027,291.427 160.027,292.094 160.5,293.5C 158.973,293.573 157.973,292.906 157.5,291.5 Z"/></g>
<g><path style="opacity:1" fill="#777777" d="M 125.5,299.5 C 127.027,299.427 128.027,300.094 128.5,301.5C 126.973,301.573 125.973,300.906 125.5,299.5 Z"/></g>
<g><path style="opacity:1" fill="#424242" d="M 198.5,300.5 C 326.833,301.833 455.167,301.833 583.5,300.5C 584.167,300.5 584.5,300.833 584.5,301.5C 455.5,302.833 326.5,302.833 197.5,301.5C 197.5,300.833 197.833,300.5 198.5,300.5 Z"/></g>
<g><path style="opacity:1" fill="#c9c9c9" d="M 197.5,301.5 C 326.5,302.833 455.5,302.833 584.5,301.5C 585.043,301.56 585.376,301.893 585.5,302.5C 455.833,303.833 326.167,303.833 196.5,302.5C 196.624,301.893 196.957,301.56 197.5,301.5 Z"/></g>
<g><path style="opacity:1" fill="#d7d7d7" d="M 586.5,329.5 C 586.539,328.417 586.873,327.417 587.5,326.5C 456.168,325.333 324.835,325.167 193.5,326C 194.252,326.671 194.586,327.504 194.5,328.5C 192.896,327.713 192.229,326.38 192.5,324.5C 324.5,324.333 456.5,324.5 588.5,325C 589.641,327.224 588.974,328.724 586.5,329.5 Z"/></g>
<g><path style="opacity:0.943" fill="#010101" d="M 586.5,329.5 C 567.522,363.45 548.522,397.45 529.5,431.5C 528.094,431.973 527.427,432.973 527.5,434.5C 490.643,499.549 454.309,564.882 418.5,630.5C 417.094,630.973 416.427,631.973 416.5,633.5C 409.577,645.757 402.743,658.09 396,670.5C 332.672,562.353 269.172,454.353 205.5,346.5C 205.573,344.973 204.906,343.973 203.5,343.5C 200.89,338.233 197.89,333.233 194.5,328.5C 194.586,327.504 194.252,326.671 193.5,326C 324.835,325.167 456.168,325.333 587.5,326.5C 586.873,327.417 586.539,328.417 586.5,329.5 Z M 223.5,341.5 C 280.054,439.605 337.387,537.271 395.5,634.5C 450.293,537.081 504.96,439.581 559.5,342C 447.5,341.5 335.5,341.333 223.5,341.5 Z"/></g>
<g><path style="opacity:0.934" fill="#030303" d="M 208.5,397.5 C 208.427,399.027 209.094,400.027 210.5,400.5C 221.097,418.03 231.431,435.697 241.5,453.5C 241.427,455.027 242.094,456.027 243.5,456.5C 254.097,474.03 264.431,491.697 274.5,509.5C 274.427,511.027 275.094,512.027 276.5,512.5C 286.593,530.358 296.926,548.025 307.5,565.5C 307.427,567.027 308.094,568.027 309.5,568.5C 330.824,604.477 352.157,640.477 373.5,676.5C 372.5,676.833 371.5,677.167 370.5,677.5C 364.245,675.957 357.912,674.957 351.5,674.5C 336.758,671.097 321.758,668.431 306.5,666.5C 299.169,665.501 291.836,664.501 284.5,663.5C 269.401,660.205 254.068,657.538 238.5,655.5C 231.164,654.499 223.831,653.499 216.5,652.5C 201.402,649.205 186.069,646.538 170.5,644.5C 161.188,643.038 151.854,641.704 142.5,640.5C 131.402,637.871 120.069,635.871 108.5,634.5C 97.5195,632.741 86.5195,631.074 75.5,629.5C 72.6888,628.525 69.6888,627.858 66.5,627.5C 66.5,626.5 66.5,625.5 66.5,624.5C 67.9313,623.22 68.5979,621.553 68.5,619.5C 70.9151,616.66 72.2484,613.327 72.5,609.5C 75.0991,603.295 77.4325,596.961 79.5,590.5C 81.9151,587.66 83.2484,584.327 83.5,580.5C 86.0991,574.295 88.4325,567.961 90.5,561.5C 92.5848,559.316 93.5848,556.649 93.5,553.5C 95.6501,547.045 97.9835,540.711 100.5,534.5C 102.915,531.66 104.248,528.327 104.5,524.5C 106.65,518.045 108.983,511.711 111.5,505.5C 113.915,502.66 115.248,499.327 115.5,495.5C 117.65,489.045 119.983,482.711 122.5,476.5C 124.794,473.63 126.128,470.297 126.5,466.5C 129.887,458.677 132.887,450.677 135.5,442.5C 137.915,439.66 139.248,436.327 139.5,432.5C 142.099,426.295 144.432,419.961 146.5,413.5C 148.585,411.316 149.585,408.649 149.5,405.5C 152.18,398.493 154.847,391.493 157.5,384.5C 159.585,382.316 160.585,379.649 160.5,376.5C 162.181,371.788 163.847,367.122 165.5,362.5C 167.293,360.574 168.293,358.241 168.5,355.5C 170.585,353.316 171.585,350.649 171.5,347.5C 171.812,344.727 172.978,342.393 175,340.5C 186.19,359.555 197.356,378.555 208.5,397.5 Z M 177.5,379.5 C 148.167,457.833 118.833,536.167 89.5,614.5C 162.203,626.006 234.869,637.839 307.5,650C 318.185,651.561 328.852,652.894 339.5,654C 285.238,562.591 231.238,471.091 177.5,379.5 Z"/></g>
<g><path style="opacity:0.934" fill="#030303" d="M 616.5,363.5 C 616.402,365.553 617.069,367.22 618.5,368.5C 621.647,376.615 624.98,384.615 628.5,392.5C 628.707,395.241 629.707,397.574 631.5,399.5C 634.5,406.833 637.5,414.167 640.5,421.5C 640.707,424.241 641.707,426.574 643.5,428.5C 645.223,433.613 647.223,438.613 649.5,443.5C 649.402,445.553 650.069,447.22 651.5,448.5C 662.029,473.419 672.362,498.419 682.5,523.5C 682.229,525.38 682.896,526.713 684.5,527.5C 695.948,556.045 707.615,584.378 719.5,612.5C 719.707,615.241 720.707,617.574 722.5,619.5C 723.349,622.035 724.349,624.535 725.5,627C 725.095,627.945 724.428,628.612 723.5,629C 711.46,631.062 699.46,633.229 687.5,635.5C 667.204,637.772 647.204,641.105 627.5,645.5C 621.82,646.058 616.153,646.725 610.5,647.5C 596.929,649.205 583.596,651.539 570.5,654.5C 562.394,655.407 554.394,656.74 546.5,658.5C 531.551,659.828 516.884,662.161 502.5,665.5C 494.426,666.448 486.426,667.782 478.5,669.5C 465.542,670.439 452.875,672.439 440.5,675.5C 433.968,676.227 427.468,677.227 421,678.5C 420.167,678.167 419.333,677.833 418.5,677.5C 419.889,675.132 421.222,672.799 422.5,670.5C 423.906,670.027 424.573,669.027 424.5,667.5C 434.848,648.802 445.181,630.135 455.5,611.5C 456.906,611.027 457.573,610.027 457.5,608.5C 464.326,594.846 471.659,581.512 479.5,568.5C 480.906,568.027 481.573,567.027 481.5,565.5C 483.566,561.034 485.9,556.701 488.5,552.5C 489.906,552.027 490.573,551.027 490.5,549.5C 497.326,535.846 504.659,522.512 512.5,509.5C 513.906,509.027 514.573,508.027 514.5,506.5C 516.566,502.034 518.9,497.701 521.5,493.5C 522.906,493.027 523.573,492.027 523.5,490.5C 530.33,476.836 537.663,463.503 545.5,450.5C 546.906,450.027 547.573,449.027 547.5,447.5C 557.833,428.833 568.167,410.167 578.5,391.5C 579.906,391.027 580.573,390.027 580.5,388.5C 588.803,372.564 597.636,356.897 607,341.5C 610.454,348.738 613.621,356.072 616.5,363.5 Z M 604.5,381.5 C 553.395,473.111 502.062,564.611 450.5,656C 534.294,643.108 617.96,629.441 701.5,615C 669.537,536.921 637.204,459.088 604.5,381.5 Z"/></g>
<g><path style="opacity:1" fill="#777777" d="M 203.5,343.5 C 204.906,343.973 205.573,344.973 205.5,346.5C 204.094,346.027 203.427,345.027 203.5,343.5 Z"/></g>
<g><path style="opacity:1" fill="#a0a0a0" d="M 633.5,343.5 C 635.592,346.088 636.925,349.088 637.5,352.5C 634.835,350.165 633.502,347.165 633.5,343.5 Z"/></g>
<g><path style="opacity:1" fill="#727272" d="M 171.5,347.5 C 171.585,350.649 170.585,353.316 168.5,355.5C 168.98,352.557 169.98,349.89 171.5,347.5 Z"/></g>
<g><path style="opacity:1" fill="#9f9f9f" d="M 168.5,355.5 C 168.293,358.241 167.293,360.574 165.5,362.5C 165.707,359.759 166.707,357.426 168.5,355.5 Z"/></g>
<g><path style="opacity:1" fill="#7c7c7c" d="M 616.5,363.5 C 617.931,364.78 618.598,366.447 618.5,368.5C 617.069,367.22 616.402,365.553 616.5,363.5 Z"/></g>
<g><path style="opacity:1" fill="#747474" d="M 160.5,376.5 C 160.585,379.649 159.585,382.316 157.5,384.5C 157.98,381.557 158.98,378.89 160.5,376.5 Z"/></g>
<g><path style="opacity:1" fill="#747474" d="M 580.5,388.5 C 580.573,390.027 579.906,391.027 578.5,391.5C 578.427,389.973 579.094,388.973 580.5,388.5 Z"/></g>
<g><path style="opacity:1" fill="#8a8a8a" d="M 628.5,392.5 C 630.293,394.426 631.293,396.759 631.5,399.5C 629.707,397.574 628.707,395.241 628.5,392.5 Z"/></g>
<g><path style="opacity:1" fill="#6f6f6f" d="M 208.5,397.5 C 209.906,397.973 210.573,398.973 210.5,400.5C 209.094,400.027 208.427,399.027 208.5,397.5 Z"/></g>
<g><path style="opacity:1" fill="#979797" d="M 656.5,398.5 C 658.065,400.509 659.065,402.843 659.5,405.5C 657.166,403.824 656.166,401.491 656.5,398.5 Z"/></g>
<g><path style="opacity:1" fill="#777777" d="M 149.5,405.5 C 149.585,408.649 148.585,411.316 146.5,413.5C 146.98,410.557 147.98,407.89 149.5,405.5 Z"/></g>
<g><path style="opacity:1" fill="#8f8f8f" d="M 640.5,421.5 C 642.293,423.426 643.293,425.759 643.5,428.5C 641.707,426.574 640.707,424.241 640.5,421.5 Z"/></g>
<g><path style="opacity:1" fill="#6e6e6e" d="M 529.5,431.5 C 529.573,433.027 528.906,434.027 527.5,434.5C 527.427,432.973 528.094,431.973 529.5,431.5 Z"/></g>
<g><path style="opacity:1" fill="#5e5e5e" d="M 139.5,432.5 C 139.248,436.327 137.915,439.66 135.5,442.5C 136.263,438.863 137.597,435.53 139.5,432.5 Z"/></g>
<g><path style="opacity:1" fill="#757575" d="M 649.5,443.5 C 650.931,444.78 651.598,446.447 651.5,448.5C 650.069,447.22 649.402,445.553 649.5,443.5 Z"/></g>
<g><path style="opacity:1" fill="#737373" d="M 547.5,447.5 C 547.573,449.027 546.906,450.027 545.5,450.5C 545.427,448.973 546.094,447.973 547.5,447.5 Z"/></g>
<g><path style="opacity:1" fill="#9f9f9f" d="M 677.5,449.5 C 679.592,452.088 680.925,455.088 681.5,458.5C 678.835,456.165 677.502,453.165 677.5,449.5 Z"/></g>
<g><path style="opacity:1" fill="#737373" d="M 241.5,453.5 C 242.906,453.973 243.573,454.973 243.5,456.5C 242.094,456.027 241.427,455.027 241.5,453.5 Z"/></g>
<g><path style="opacity:1" fill="#8a8a8a" d="M 126.5,466.5 C 126.128,470.297 124.794,473.63 122.5,476.5C 123.263,472.863 124.597,469.53 126.5,466.5 Z"/></g>
<g><path style="opacity:1" fill="#6f6f6f" d="M 523.5,490.5 C 523.573,492.027 522.906,493.027 521.5,493.5C 521.427,491.973 522.094,490.973 523.5,490.5 Z"/></g>
<g><path style="opacity:1" fill="#7e7e7e" d="M 115.5,495.5 C 115.248,499.327 113.915,502.66 111.5,505.5C 112.314,501.884 113.648,498.551 115.5,495.5 Z"/></g>
<g><path style="opacity:1" fill="#757575" d="M 514.5,506.5 C 514.573,508.027 513.906,509.027 512.5,509.5C 512.427,507.973 513.094,506.973 514.5,506.5 Z"/></g>
<g><path style="opacity:1" fill="#767676" d="M 274.5,509.5 C 275.906,509.973 276.573,510.973 276.5,512.5C 275.094,512.027 274.427,511.027 274.5,509.5 Z"/></g>
<g><path style="opacity:1" fill="#767676" d="M 682.5,523.5 C 683.674,524.514 684.34,525.847 684.5,527.5C 682.896,526.713 682.229,525.38 682.5,523.5 Z"/></g>
<g><path style="opacity:1" fill="#818181" d="M 104.5,524.5 C 104.248,528.327 102.915,531.66 100.5,534.5C 101.314,530.884 102.648,527.551 104.5,524.5 Z"/></g>
<g><path style="opacity:1" fill="#727272" d="M 490.5,549.5 C 490.573,551.027 489.906,552.027 488.5,552.5C 488.427,550.973 489.094,549.973 490.5,549.5 Z"/></g>
<g><path style="opacity:1" fill="#797979" d="M 93.5,553.5 C 93.5848,556.649 92.5848,559.316 90.5,561.5C 90.9802,558.557 91.9802,555.89 93.5,553.5 Z"/></g>
<g><path style="opacity:1" fill="#9e9e9e" d="M 66.5,560.5 C 66.8337,563.491 65.8337,565.824 63.5,567.5C 63.9348,564.843 64.9348,562.509 66.5,560.5 Z"/></g>
<g><path style="opacity:1" fill="#787878" d="M 307.5,565.5 C 308.906,565.973 309.573,566.973 309.5,568.5C 308.094,568.027 307.427,567.027 307.5,565.5 Z"/></g>
<g><path style="opacity:1" fill="#737373" d="M 481.5,565.5 C 481.573,567.027 480.906,568.027 479.5,568.5C 479.427,566.973 480.094,565.973 481.5,565.5 Z"/></g>
<g><path style="opacity:1" fill="#5e5e5e" d="M 83.5,580.5 C 83.2484,584.327 81.9151,587.66 79.5,590.5C 80.2635,586.863 81.5968,583.53 83.5,580.5 Z"/></g>
<g><path style="opacity:1" fill="#727272" d="M 457.5,608.5 C 457.573,610.027 456.906,611.027 455.5,611.5C 455.427,609.973 456.094,608.973 457.5,608.5 Z"/></g>
<g><path style="opacity:1" fill="#636363" d="M 72.5,609.5 C 72.2484,613.327 70.9151,616.66 68.5,619.5C 69.2635,615.863 70.5968,612.53 72.5,609.5 Z"/></g>
<g><path style="opacity:1" fill="#9d9d9d" d="M 719.5,612.5 C 721.293,614.426 722.293,616.759 722.5,619.5C 720.707,617.574 719.707,615.241 719.5,612.5 Z"/></g>
<g><path style="opacity:1" fill="#a0a0a0" d="M 66.5,624.5 C 66.5,625.5 66.5,626.5 66.5,627.5C 69.6888,627.858 72.6888,628.525 75.5,629.5C 72.4212,629.74 69.4212,629.407 66.5,628.5C 65.218,627.042 65.218,625.708 66.5,624.5 Z"/></g>
<g><path style="opacity:1" fill="#757575" d="M 418.5,630.5 C 418.573,632.027 417.906,633.027 416.5,633.5C 416.427,631.973 417.094,630.973 418.5,630.5 Z"/></g>
<g><path style="opacity:1" fill="#898989" d="M 108.5,634.5 C 120.069,635.871 131.402,637.871 142.5,640.5C 130.893,639.345 119.56,637.345 108.5,634.5 Z"/></g>
<g><path style="opacity:1" fill="#c5c5c5" d="M 687.5,635.5 C 667.726,639.462 647.726,642.796 627.5,645.5C 647.204,641.105 667.204,637.772 687.5,635.5 Z"/></g>
<g><path style="opacity:1" fill="#858585" d="M 170.5,644.5 C 186.069,646.538 201.402,649.205 216.5,652.5C 200.856,650.894 185.522,648.227 170.5,644.5 Z"/></g>
<g><path style="opacity:1" fill="#bfbfbf" d="M 610.5,647.5 C 597.514,651.094 584.18,653.428 570.5,654.5C 583.596,651.539 596.929,649.205 610.5,647.5 Z"/></g>
<g><path style="opacity:1" fill="#4c4c4c" d="M 713.5,656.5 C 709.374,656.157 705.041,656.157 700.5,656.5C 706.282,654.793 712.282,653.96 718.5,654C 716.807,654.847 715.14,655.68 713.5,656.5 Z"/></g>
<g><path style="opacity:1" fill="#515151" d="M 83.5,655.5 C 81.5853,655.216 79.9187,655.549 78.5,656.5C 76.5767,656.205 74.9101,655.372 73.5,654C 77.0332,653.757 80.3665,654.257 83.5,655.5 Z"/></g>
<g><path style="opacity:0.939" fill="#030303" d="M 83.5,655.5 C 89.1531,656.275 94.8197,656.942 100.5,657.5C 115.599,660.795 130.932,663.462 146.5,665.5C 159.814,667.63 173.148,669.63 186.5,671.5C 200.875,674.895 215.541,677.228 230.5,678.5C 238.737,680.373 247.07,681.706 255.5,682.5C 267.88,685.562 280.546,687.562 293.5,688.5C 299.713,690.035 306.047,691.035 312.5,691.5C 330.558,695.454 348.891,698.454 367.5,700.5C 371.772,701.49 376.106,702.156 380.5,702.5C 381.209,703.404 382.209,703.737 383.5,703.5C 383.832,746.337 383.499,789.003 382.5,831.5C 379.86,830.18 377.193,828.847 374.5,827.5C 374.027,826.094 373.027,825.427 371.5,825.5C 352.825,814.83 334.159,804.163 315.5,793.5C 315.027,792.094 314.027,791.427 312.5,791.5C 243.396,752.112 174.396,712.445 105.5,672.5C 105.027,671.094 104.027,670.427 102.5,670.5C 97.1939,667.512 91.8606,664.512 86.5,661.5C 86.0269,660.094 85.0269,659.427 83.5,659.5C 81.326,659.25 79.6594,658.25 78.5,656.5C 79.9187,655.549 81.5853,655.216 83.5,655.5 Z M 164.5,686.5 C 232.057,724.712 299.39,763.378 366.5,802.5C 367.5,774.175 367.833,745.841 367.5,717.5C 300.583,707.431 233.749,696.764 167,685.5C 165.93,685.528 165.097,685.861 164.5,686.5 Z"/></g>
<g><path style="opacity:0.944" fill="#010101" d="M 713.5,656.5 C 648.568,693.302 583.901,730.635 519.5,768.5C 517.326,768.75 515.659,769.75 514.5,771.5C 478.832,791.331 443.499,811.665 408.5,832.5C 407.501,789.67 407.168,746.67 407.5,703.5C 415.478,702.038 423.478,700.704 431.5,699.5C 436.1,699.72 440.433,699.054 444.5,697.5C 452.421,696.903 460.087,695.57 467.5,693.5C 480.478,691.393 493.478,689.393 506.5,687.5C 514.767,687.011 522.767,685.678 530.5,683.5C 543.477,681.393 556.477,679.393 569.5,677.5C 581.767,676.344 593.767,674.344 605.5,671.5C 614.854,670.296 624.188,668.962 633.5,667.5C 641.39,666.71 649.057,665.377 656.5,663.5C 662.732,663.128 668.732,662.128 674.5,660.5C 683.206,659.382 691.872,658.049 700.5,656.5C 705.041,656.157 709.374,656.157 713.5,656.5 Z M 622.5,685.5 C 556.445,697.12 490.112,707.786 423.5,717.5C 423.333,746.169 423.5,774.835 424,803.5C 491.588,763.954 559.422,724.788 627.5,686C 625.866,685.506 624.199,685.34 622.5,685.5 Z"/></g>
<g><path style="opacity:1" fill="#adadad" d="M 100.5,657.5 C 116.134,659.105 131.467,661.771 146.5,665.5C 130.932,663.462 115.599,660.795 100.5,657.5 Z"/></g>
<g><path style="opacity:1" fill="#808080" d="M 238.5,655.5 C 254.068,657.538 269.401,660.205 284.5,663.5C 268.862,661.895 253.529,659.228 238.5,655.5 Z"/></g>
<g><path style="opacity:1" fill="#757575" d="M 83.5,659.5 C 85.0269,659.427 86.0269,660.094 86.5,661.5C 84.9731,661.573 83.9731,660.906 83.5,659.5 Z"/></g>
<g><path style="opacity:1" fill="#9b9b9b" d="M 674.5,660.5 C 668.732,662.128 662.732,663.128 656.5,663.5C 662.196,661.439 668.196,660.439 674.5,660.5 Z"/></g>
<g><path style="opacity:1" fill="#b8b8b8" d="M 546.5,658.5 C 532.094,661.678 517.427,664.011 502.5,665.5C 516.884,662.161 531.551,659.828 546.5,658.5 Z"/></g>
<g><path style="opacity:1" fill="#6c6c6c" d="M 656.5,663.5 C 649.057,665.377 641.39,666.71 633.5,667.5C 640.875,665.214 648.541,663.881 656.5,663.5 Z"/></g>
<g><path style="opacity:1" fill="#727272" d="M 424.5,667.5 C 424.573,669.027 423.906,670.027 422.5,670.5C 422.427,668.973 423.094,667.973 424.5,667.5 Z"/></g>
<g><path style="opacity:1" fill="#787878" d="M 102.5,670.5 C 104.027,670.427 105.027,671.094 105.5,672.5C 103.973,672.573 102.973,671.906 102.5,670.5 Z"/></g>
<g><path style="opacity:1" fill="#999999" d="M 186.5,671.5 C 201.39,673.205 216.057,675.538 230.5,678.5C 215.541,677.228 200.875,674.895 186.5,671.5 Z"/></g>
<g><path style="opacity:1" fill="#898989" d="M 306.5,666.5 C 321.758,668.431 336.758,671.097 351.5,674.5C 336.207,672.786 321.207,670.119 306.5,666.5 Z"/></g>
<g><path style="opacity:1" fill="#b1b1b1" d="M 478.5,669.5 C 466.094,672.344 453.427,674.344 440.5,675.5C 452.875,672.439 465.542,670.439 478.5,669.5 Z"/></g>
<g><path style="opacity:1" fill="#858585" d="M 605.5,671.5 C 593.767,674.344 581.767,676.344 569.5,677.5C 581.227,674.578 593.227,672.578 605.5,671.5 Z"/></g>
<g><path style="opacity:1" fill="#9e9e9e" d="M 255.5,682.5 C 268.39,683.872 281.057,685.872 293.5,688.5C 280.546,687.562 267.88,685.562 255.5,682.5 Z"/></g>
<g><path style="opacity:1" fill="#808080" d="M 530.5,683.5 C 522.767,685.678 514.767,687.011 506.5,687.5C 514.233,685.322 522.233,683.989 530.5,683.5 Z"/></g>
<g><path style="opacity:1" fill="#a4a4a4" d="M 312.5,691.5 C 331.077,693.763 349.411,696.763 367.5,700.5C 348.891,698.454 330.558,695.454 312.5,691.5 Z"/></g>
<g><path style="opacity:1" fill="#8d8d8d" d="M 467.5,693.5 C 460.087,695.57 452.421,696.903 444.5,697.5C 451.875,695.214 459.541,693.881 467.5,693.5 Z"/></g>
<g><path style="opacity:1" fill="#676767" d="M 444.5,697.5 C 440.433,699.054 436.1,699.72 431.5,699.5C 435.591,698.105 439.924,697.438 444.5,697.5 Z"/></g>
<g><path style="opacity:1" fill="#c3c3c3" d="M 407.5,703.5 C 407.168,746.67 407.501,789.67 408.5,832.5C 408.44,833.043 408.107,833.376 407.5,833.5C 406.169,790.002 406.169,746.669 407.5,703.5 Z"/></g>
<g><path style="opacity:1" fill="#5b5b5b" d="M 380.5,702.5 C 381.833,702.5 383.167,702.5 384.5,702.5C 384.667,746.168 384.5,789.835 384,833.5C 383.283,832.956 382.783,832.289 382.5,831.5C 383.499,789.003 383.832,746.337 383.5,703.5C 382.209,703.737 381.209,703.404 380.5,702.5 Z"/></g>
<g><path style="opacity:1" fill="#7c7c7c" d="M 179.5,741.5 C 181.027,741.427 182.027,742.094 182.5,743.5C 180.973,743.573 179.973,742.906 179.5,741.5 Z"/></g>
<g><path style="opacity:1" fill="#a1a1a1" d="M 519.5,768.5 C 518.514,770.408 516.848,771.408 514.5,771.5C 515.659,769.75 517.326,768.75 519.5,768.5 Z"/></g>
<g><path style="opacity:1" fill="#717171" d="M 312.5,791.5 C 314.027,791.427 315.027,792.094 315.5,793.5C 313.973,793.573 312.973,792.906 312.5,791.5 Z"/></g>
<g><path style="opacity:1" fill="#707070" d="M 371.5,825.5 C 373.027,825.427 374.027,826.094 374.5,827.5C 372.973,827.573 371.973,826.906 371.5,825.5 Z"/></g>
<g><path style="opacity:1" fill="#7c7c7c" d="M 333.5,830.5 C 335.027,830.427 336.027,831.094 336.5,832.5C 334.973,832.573 333.973,831.906 333.5,830.5 Z"/></g>
<g><path style="opacity:1" fill="#767676" d="M 390.5,863.5 C 392.027,863.427 393.027,864.094 393.5,865.5C 391.973,865.573 390.973,864.906 390.5,863.5 Z"/></g>
</svg>
