<svg xmlns="http://www.w3.org/2000/svg" width="797" height="924" style="shape-rendering:geometricPrecision;text-rendering:geometricPrecision;image-rendering:optimizeQuality;fill-rule:evenodd;clip-rule:evenodd"><path fill="#020202" d="M389.5 4.5a84.94 84.94 0 0 1 13 .5 50359.466 50359.466 0 0 1 368 212c3.369 2.365 5.536 5.532 6.5 9.5.667 145 .667 290 0 435a22.981 22.981 0 0 1-2 5 210.577 210.577 0 0 1-20.5 13.5 93262.372 93262.372 0 0 1-353 203c-7.217 1.405-13.884.071-20-4a96526.457 96526.457 0 0 0-361-209c-3.37-2.365-5.536-5.532-6.5-9.5a47086.896 47086.896 0 0 1 0-434c1.35-4.685 4.183-8.185 8.5-10.5a50796.07 50796.07 0 0 1 367-211.5Zm5 88a14780.418 14780.418 0 0 1 154 192.5c-104.668.833-209.335.667-314-.5a21369.405 21369.405 0 0 0 160-192Zm104 35a13423.453 13423.453 0 0 1 190 110 7414.808 7414.808 0 0 1-72.5 39 8300.404 8300.404 0 0 1-117.5-149Zm-214 5a24874.657 24874.657 0 0 0-118.5 144L101.5 238a12516.582 12516.582 0 0 1 183-105.5Zm437 153c1.333 37.661 2 75.661 2 114l-.5 114a22632.359 22632.359 0 0 0-77.5-186 229244.13 229244.13 0 0 0 76-42Zm-652 2a1123.235 1123.235 0 0 1 67 40 55177.734 55177.734 0 0 1-66.5 174c-.5-71.333-.667-142.666-.5-214Zm154 54c112-.167 224 0 336 .5a124985.766 124985.766 0 0 1-164 292.5 21521.053 21521.053 0 0 1-172-293Zm-46 38a62277.25 62277.25 0 0 0 162 274.5 775.8 775.8 0 0 1-32-4 24711.396 24711.396 0 0 0-218-35.5l88-235Zm427 2a24420.043 24420.043 0 0 1 97 233.5 13735.945 13735.945 0 0 1-251 41 65109.027 65109.027 0 0 0 154-274.5Zm-440 305c.597-.639 1.43-.972 2.5-1a11389.31 11389.31 0 0 0 200.5 32c.333 28.341 0 56.675-1 85a17877.016 17877.016 0 0 0-202-116Zm458-1a12.93 12.93 0 0 1 5 .5A20418.596 20418.596 0 0 0 424 803.5c-.5-28.665-.667-57.331-.5-86a6873.41 6873.41 0 0 0 199-32Z" style="opacity:.938"/><path fill="#fafafa" d="M423.5 36.5c.473 1.406 1.473 2.073 3 2 31.324 17.996 62.657 35.996 94 54 .473 1.406 1.473 2.073 3 2a899.238 899.238 0 0 0 35 20c.473 1.406 1.473 2.073 3 2a2392.285 2392.285 0 0 1 16 9c.473 1.406 1.473 2.073 3 2l94 54c.473 1.406 1.473 2.073 3 2 5.294 2.982 10.627 5.982 16 9 .473 1.406 1.473 2.073 3 2 5.294 2.982 10.627 5.982 16 9 .473 1.406 1.473 2.073 3 2 5.294 2.982 10.627 5.982 16 9 .473 1.406 1.473 2.073 3 2a19139.92 19139.92 0 0 0 26 15 22478.12 22478.12 0 0 1 0 424L397.5 866c-1.566.765-2.899.598-4-.5-.473-1.406-1.473-2.073-3-2-18.04-10.351-36.04-20.684-54-31-.473-1.406-1.473-2.073-3-2a11183.848 11183.848 0 0 1-151-87c-.473-1.406-1.473-2.073-3-2a6833.95 6833.95 0 0 1-149.5-86c-.833-141.335-.667-282.668.5-424a709560.87 709560.87 0 0 1 314-181c2.348-.092 4.014-1.092 5-3a52471.51 52471.51 0 0 1 46-27 293.917 293.917 0 0 0 28 16Zm-29 56a21369.405 21369.405 0 0 1-160 192 16433.065 16433.065 0 0 0 314 .5 14780.418 14780.418 0 0 0-154-192.5Zm104 35a8300.404 8300.404 0 0 0 117.5 149 7414.808 7414.808 0 0 0 72.5-39 13423.453 13423.453 0 0 0-190-110Zm-214 5a12516.582 12516.582 0 0 0-183 105.5l64.5 38.5a24874.657 24874.657 0 0 1 118.5-144Zm437 153a229244.13 229244.13 0 0 1-76 42 22632.359 22632.359 0 0 1 77.5 186l.5-114c0-38.339-.667-76.339-2-114Zm-652 2c-.167 71.334 0 142.667.5 214a55177.734 55177.734 0 0 0 66.5-174 1123.235 1123.235 0 0 0-67-40Zm154 54a21521.053 21521.053 0 0 0 172 293 124985.766 124985.766 0 0 0 164-292.5c-112-.5-224-.667-336-.5Zm-46 38-88 235a24711.396 24711.396 0 0 1 218 35.5 775.8 775.8 0 0 0 32 4 62277.25 62277.25 0 0 1-162-274.5Zm427 2a65109.027 65109.027 0 0 1-154 274.5 13735.945 13735.945 0 0 0 251-41 24420.043 24420.043 0 0 0-97-233.5Zm-440 305a17877.016 17877.016 0 0 1 202 116c1-28.325 1.333-56.659 1-85a11389.31 11389.31 0 0 1-200.5-32c-1.07.028-1.903.361-2.5 1Zm458-1a6873.41 6873.41 0 0 1-199 32c-.167 28.669 0 57.335.5 86A20418.596 20418.596 0 0 1 627.5 686a12.93 12.93 0 0 0-5-.5Z" style="opacity:1"/><path fill="#757575" d="M423.5 36.5c1.527-.073 2.527.594 3 2-1.527.073-2.527-.594-3-2Z" style="opacity:1"/><path fill="#a0a0a0" d="M349.5 47.5c-.986 1.908-2.652 2.908-5 3 1.159-1.75 2.826-2.75 5-3Z" style="opacity:1"/><path fill="#020202" d="M583.5 300.5a18533.258 18533.258 0 0 1-385 0c65.673-78.672 131.34-157.339 197-236 62.664 78.658 125.331 157.325 188 236Zm-189-208a21369.405 21369.405 0 0 1-160 192 16433.065 16433.065 0 0 0 314 .5 14780.418 14780.418 0 0 0-154-192.5Z" style="opacity:.923"/><path fill="#555" d="M358.5 71.5c.172-.992-.162-1.658-1-2 1.375-1.57 3.041-2.403 5-2.5-1.57 1.397-2.904 2.897-4 4.5Z" style="opacity:1"/><path fill="#5a5a5a" d="M431.5 68.5c-.667 0-1 .333-1 1-2.257-1.062-3.423-2.728-3.5-5 1.992.828 3.492 2.161 4.5 4Z" style="opacity:1"/><path fill="#020202" d="M431.5 68.5a2447.1 2447.1 0 0 0 74 42c.473 1.406 1.473 2.073 3 2 5.35 3.028 10.684 6.028 16 9 .473 1.406 1.473 2.073 3 2a42961.77 42961.77 0 0 0 16 9c.473 1.406 1.473 2.073 3 2a8190.318 8190.318 0 0 0 132 76c.473 1.406 1.473 2.073 3 2a1705.09 1705.09 0 0 1 44 25.5A18499.323 18499.323 0 0 0 611 298.5a57712.73 57712.73 0 0 1-180.5-229c0-.667.333-1 1-1Zm67 59a8300.404 8300.404 0 0 0 117.5 149 7414.808 7414.808 0 0 0 72.5-39 13423.453 13423.453 0 0 0-190-110Z" style="opacity:.943"/><path fill="#040404" d="M357.5 69.5c.838.342 1.172 1.008 1 2a21.62 21.62 0 0 0-4 5c-2.087 1.085-3.42 2.751-4 5a20556.31 20556.31 0 0 0-178.5 215 7.248 7.248 0 0 1-2.5 2 95.537 95.537 0 0 0-9-5c-.473-1.406-1.473-2.073-3-2a9316.237 9316.237 0 0 1-14-8c-.473-1.406-1.473-2.073-3-2a1373.114 1373.114 0 0 1-74-43.5 33184.29 33184.29 0 0 1 291-168.5Zm-73 63a12516.582 12516.582 0 0 0-183 105.5l64.5 38.5a24874.657 24874.657 0 0 1 118.5-144Z" style="opacity:.943"/><path fill="#9e9e9e" d="M354.5 76.5c-.58 2.249-1.913 3.915-4 5 .58-2.249 1.913-3.915 4-5Z" style="opacity:1"/><path fill="#6f6f6f" d="M520.5 92.5c1.527-.073 2.527.594 3 2-1.527.073-2.527-.594-3-2Z" style="opacity:1"/><path fill="#7c7c7c" d="M505.5 110.5c1.527-.073 2.527.594 3 2-1.527.073-2.527-.594-3-2Z" style="opacity:1"/><path fill="#727272" d="M558.5 114.5c1.527-.073 2.527.594 3 2-1.527.073-2.527-.594-3-2Z" style="opacity:1"/><path fill="#787878" d="M524.5 121.5c1.527-.073 2.527.594 3 2-1.527.073-2.527-.594-3-2Z" style="opacity:1"/><path fill="#757575" d="M577.5 125.5c1.527-.073 2.527.594 3 2-1.527.073-2.527-.594-3-2Z" style="opacity:1"/><path fill="#777" d="M543.5 132.5c1.527-.073 2.527.594 3 2-1.527.073-2.527-.594-3-2Z" style="opacity:1"/><path fill="#6e6e6e" d="M674.5 181.5c1.527-.073 2.527.594 3 2-1.527.073-2.527-.594-3-2Z" style="opacity:1"/><path fill="#707070" d="M693.5 192.5c1.527-.073 2.527.594 3 2-1.527.073-2.527-.594-3-2Z" style="opacity:1"/><path fill="#737373" d="M712.5 203.5c1.527-.073 2.527.594 3 2-1.527.073-2.527-.594-3-2Z" style="opacity:1"/><path fill="#757575" d="M678.5 210.5c1.527-.073 2.527.594 3 2-1.527.073-2.527-.594-3-2Z" style="opacity:1"/><path fill="#737373" d="M731.5 214.5c1.527-.073 2.527.594 3 2-1.527.073-2.527-.594-3-2Z" style="opacity:1"/><path fill="#a0a0a0" d="M738.5 257.5c.06-.543.393-.876 1-1a19608.561 19608.561 0 0 1 .5 343c-.717-.544-1.217-1.211-1.5-2a14454.113 14454.113 0 0 0 0-340Z" style="opacity:1"/><path fill="#919191" d="M54.5 258.5a18602.38 18602.38 0 0 0-.5 334c.232-1.237.732-2.237 1.5-3 .236 2.726-.597 5.059-2.5 7a19153.91 19153.91 0 0 1 .5-339c.607.124.94.457 1 1Z" style="opacity:1"/><path fill="#010101" d="M54.5 258.5a3712.894 3712.894 0 0 0 71 41c.473 1.406 1.473 2.073 3 2a267.574 267.574 0 0 0 27 15.5c1.074.739 1.741 1.739 2 3a35300.831 35300.831 0 0 0-91 240.5c-1.565 2.009-2.565 4.343-3 7-2.66 7.323-5.327 14.656-8 22-.768.763-1.268 1.763-1.5 3a18602.38 18602.38 0 0 1 .5-334Zm15 29c-.167 71.334 0 142.667.5 214a55177.734 55177.734 0 0 0 66.5-174 1123.235 1123.235 0 0 0-67-40Z" style="opacity:.941"/><path fill="#010101" d="M736.5 258.5c1.333 55.496 2 111.329 2 167.5 0 56.001-.333 111.834-1 167.5a11922.317 11922.317 0 0 0-56-135c-.575-3.412-1.908-6.412-4-9a628.282 628.282 0 0 0-18-44c-.435-2.657-1.435-4.991-3-7a1311.608 1311.608 0 0 0-19-46c-.575-3.412-1.908-6.412-4-9a189.652 189.652 0 0 0-10-24 3.647 3.647 0 0 1 1-1.5 4286.825 4286.825 0 0 1 112-59.5Zm-15 27a229244.13 229244.13 0 0 1-76 42 22632.359 22632.359 0 0 1 77.5 186l.5-114c0-38.339-.667-76.339-2-114Z" style="opacity:.945"/><path fill="#2a2a2a" d="M736.5 258.5c.342-.838 1.008-1.172 2-1a14454.113 14454.113 0 0 1 0 340l-1-4c.667-55.666 1-111.499 1-167.5 0-56.171-.667-112.004-2-167.5Z" style="opacity:1"/><path fill="#707070" d="M140.5 281.5c1.527-.073 2.527.594 3 2-1.527.073-2.527-.594-3-2Z" style="opacity:1"/><path fill="#727272" d="M157.5 291.5c1.527-.073 2.527.594 3 2-1.527.073-2.527-.594-3-2Z" style="opacity:1"/><path fill="#777" d="M125.5 299.5c1.527-.073 2.527.594 3 2-1.527.073-2.527-.594-3-2Z" style="opacity:1"/><path fill="#424242" d="M198.5 300.5a18533.258 18533.258 0 0 0 385 0c.667 0 1 .333 1 1-129 1.333-258 1.333-387 0 0-.667.333-1 1-1Z" style="opacity:1"/><path fill="#c9c9c9" d="M197.5 301.5c129 1.333 258 1.333 387 0 .543.06.876.393 1 1a18920.355 18920.355 0 0 1-389 0c.124-.607.457-.94 1-1Z" style="opacity:1"/><path fill="#d7d7d7" d="M586.5 329.5a5.576 5.576 0 0 1 1-3 25873.055 25873.055 0 0 0-394-.5c.752.671 1.086 1.504 1 2.5-1.604-.787-2.271-2.12-2-4 132-.167 264 0 396 .5 1.141 2.224.474 3.724-2 4.5Z" style="opacity:1"/><path fill="#010101" d="M586.5 329.5c-18.978 33.95-37.978 67.95-57 102-1.406.473-2.073 1.473-2 3a14060.16 14060.16 0 0 0-109 196c-1.406.473-2.073 1.473-2 3a2575.262 2575.262 0 0 0-20.5 37 105686.091 105686.091 0 0 0-190.5-324c.073-1.527-.594-2.527-2-3a108.275 108.275 0 0 0-9-15c.086-.996-.248-1.829-1-2.5 131.335-.833 262.668-.667 394 .5a5.576 5.576 0 0 0-1 3Zm-363 12a21521.053 21521.053 0 0 0 172 293 124985.766 124985.766 0 0 0 164-292.5c-112-.5-224-.667-336-.5Z" style="opacity:.943"/><path fill="#030303" d="M208.5 397.5c-.073 1.527.594 2.527 2 3a2117.15 2117.15 0 0 1 31 53c-.073 1.527.594 2.527 2 3a2117.15 2117.15 0 0 1 31 53c-.073 1.527.594 2.527 2 3a2065.084 2065.084 0 0 0 31 53c-.073 1.527.594 2.527 2 3a739346.76 739346.76 0 0 1 64 108l-3 1a112.613 112.613 0 0 0-19-3 452.565 452.565 0 0 0-45-8l-22-3a551.257 551.257 0 0 0-46-8l-22-3a551.114 551.114 0 0 0-46-8 1020.405 1020.405 0 0 0-28-4 301.087 301.087 0 0 0-34-6 1967.314 1967.314 0 0 0-33-5c-2.811-.975-5.811-1.642-9-2v-3c1.431-1.28 2.098-2.947 2-5 2.415-2.84 3.748-6.173 4-10a232.803 232.803 0 0 0 7-19c2.415-2.84 3.748-6.173 4-10a232.803 232.803 0 0 0 7-19c2.085-2.184 3.085-4.851 3-8a319.27 319.27 0 0 1 7-19c2.415-2.84 3.748-6.173 4-10a318.851 318.851 0 0 1 7-19c2.415-2.84 3.748-6.173 4-10a318.851 318.851 0 0 1 7-19c2.294-2.87 3.628-6.203 4-10a258.104 258.104 0 0 0 9-24c2.415-2.84 3.748-6.173 4-10a233.026 233.026 0 0 0 7-19c2.085-2.184 3.085-4.851 3-8 2.68-7.007 5.347-14.007 8-21 2.085-2.184 3.085-4.851 3-8 1.681-4.712 3.347-9.378 5-14 1.793-1.926 2.793-4.259 3-7 2.085-2.184 3.085-4.851 3-8 .312-2.773 1.478-5.107 3.5-7a90626.077 90626.077 0 0 0 33.5 57Zm-31-18-88 235a24711.396 24711.396 0 0 1 218 35.5 775.8 775.8 0 0 0 32 4 62277.25 62277.25 0 0 1-162-274.5ZM616.5 363.5c-.098 2.053.569 3.72 2 5a520.757 520.757 0 0 0 10 24c.207 2.741 1.207 5.074 3 7l9 22c.207 2.741 1.207 5.074 3 7a145.522 145.522 0 0 0 6 15c-.098 2.053.569 3.72 2 5a5187.154 5187.154 0 0 1 31 75c-.271 1.88.396 3.213 2 4a4984.092 4984.092 0 0 0 35 85c.207 2.741 1.207 5.074 3 7a71.042 71.042 0 0 0 3 7.5c-.405.945-1.072 1.612-2 2a2028.715 2028.715 0 0 0-36 6.5 563.202 563.202 0 0 0-60 10 446.684 446.684 0 0 0-17 2 416.943 416.943 0 0 0-40 7 225.366 225.366 0 0 0-24 4c-14.949 1.328-29.616 3.661-44 7a251.894 251.894 0 0 0-24 4c-12.958.939-25.625 2.939-38 6a236.277 236.277 0 0 0-19.5 3l-2.5-1a348.639 348.639 0 0 0 4-7c1.406-.473 2.073-1.473 2-3 10.348-18.698 20.681-37.365 31-56 1.406-.473 2.073-1.473 2-3a579.716 579.716 0 0 1 22-40c1.406-.473 2.073-1.473 2-3 2.066-4.466 4.4-8.799 7-13 1.406-.473 2.073-1.473 2-3a579.716 579.716 0 0 1 22-40c1.406-.473 2.073-1.473 2-3 2.066-4.466 4.4-8.799 7-13 1.406-.473 2.073-1.473 2-3a578.68 578.68 0 0 1 22-40c1.406-.473 2.073-1.473 2-3l31-56c1.406-.473 2.073-1.473 2-3a816.425 816.425 0 0 1 26.5-47 317.443 317.443 0 0 1 9.5 22Zm-12 18a65109.027 65109.027 0 0 1-154 274.5 13735.945 13735.945 0 0 0 251-41 24420.043 24420.043 0 0 0-97-233.5Z" style="opacity:.934"/><path fill="#777" d="M203.5 343.5c1.406.473 2.073 1.473 2 3-1.406-.473-2.073-1.473-2-3Z" style="opacity:1"/><path fill="#a0a0a0" d="M633.5 343.5c2.092 2.588 3.425 5.588 4 9-2.665-2.335-3.998-5.335-4-9Z" style="opacity:1"/><path fill="#727272" d="M171.5 347.5c.085 3.149-.915 5.816-3 8 .48-2.943 1.48-5.61 3-8Z" style="opacity:1"/><path fill="#9f9f9f" d="M168.5 355.5c-.207 2.741-1.207 5.074-3 7 .207-2.741 1.207-5.074 3-7Z" style="opacity:1"/><path fill="#7c7c7c" d="M616.5 363.5c1.431 1.28 2.098 2.947 2 5-1.431-1.28-2.098-2.947-2-5Z" style="opacity:1"/><path fill="#747474" d="M160.5 376.5c.085 3.149-.915 5.816-3 8 .48-2.943 1.48-5.61 3-8ZM580.5 388.5c.073 1.527-.594 2.527-2 3-.073-1.527.594-2.527 2-3Z" style="opacity:1"/><path fill="#8a8a8a" d="M628.5 392.5c1.793 1.926 2.793 4.259 3 7-1.793-1.926-2.793-4.259-3-7Z" style="opacity:1"/><path fill="#6f6f6f" d="M208.5 397.5c1.406.473 2.073 1.473 2 3-1.406-.473-2.073-1.473-2-3Z" style="opacity:1"/><path fill="#979797" d="M656.5 398.5c1.565 2.009 2.565 4.343 3 7-2.334-1.676-3.334-4.009-3-7Z" style="opacity:1"/><path fill="#777" d="M149.5 405.5c.085 3.149-.915 5.816-3 8 .48-2.943 1.48-5.61 3-8Z" style="opacity:1"/><path fill="#8f8f8f" d="M640.5 421.5c1.793 1.926 2.793 4.259 3 7-1.793-1.926-2.793-4.259-3-7Z" style="opacity:1"/><path fill="#6e6e6e" d="M529.5 431.5c.073 1.527-.594 2.527-2 3-.073-1.527.594-2.527 2-3Z" style="opacity:1"/><path fill="#5e5e5e" d="M139.5 432.5c-.252 3.827-1.585 7.16-4 10 .763-3.637 2.097-6.97 4-10Z" style="opacity:1"/><path fill="#757575" d="M649.5 443.5c1.431 1.28 2.098 2.947 2 5-1.431-1.28-2.098-2.947-2-5Z" style="opacity:1"/><path fill="#737373" d="M547.5 447.5c.073 1.527-.594 2.527-2 3-.073-1.527.594-2.527 2-3Z" style="opacity:1"/><path fill="#9f9f9f" d="M677.5 449.5c2.092 2.588 3.425 5.588 4 9-2.665-2.335-3.998-5.335-4-9Z" style="opacity:1"/><path fill="#737373" d="M241.5 453.5c1.406.473 2.073 1.473 2 3-1.406-.473-2.073-1.473-2-3Z" style="opacity:1"/><path fill="#8a8a8a" d="M126.5 466.5c-.372 3.797-1.706 7.13-4 10 .763-3.637 2.097-6.97 4-10Z" style="opacity:1"/><path fill="#6f6f6f" d="M523.5 490.5c.073 1.527-.594 2.527-2 3-.073-1.527.594-2.527 2-3Z" style="opacity:1"/><path fill="#7e7e7e" d="M115.5 495.5c-.252 3.827-1.585 7.16-4 10 .814-3.616 2.148-6.949 4-10Z" style="opacity:1"/><path fill="#757575" d="M514.5 506.5c.073 1.527-.594 2.527-2 3-.073-1.527.594-2.527 2-3Z" style="opacity:1"/><path fill="#767676" d="M274.5 509.5c1.406.473 2.073 1.473 2 3-1.406-.473-2.073-1.473-2-3ZM682.5 523.5c1.174 1.014 1.84 2.347 2 4-1.604-.787-2.271-2.12-2-4Z" style="opacity:1"/><path fill="#818181" d="M104.5 524.5c-.252 3.827-1.585 7.16-4 10 .814-3.616 2.148-6.949 4-10Z" style="opacity:1"/><path fill="#727272" d="M490.5 549.5c.073 1.527-.594 2.527-2 3-.073-1.527.594-2.527 2-3Z" style="opacity:1"/><path fill="#797979" d="M93.5 553.5c.085 3.149-.915 5.816-3 8 .48-2.943 1.48-5.61 3-8Z" style="opacity:1"/><path fill="#9e9e9e" d="M66.5 560.5c.334 2.991-.666 5.324-3 7 .435-2.657 1.435-4.991 3-7Z" style="opacity:1"/><path fill="#787878" d="M307.5 565.5c1.406.473 2.073 1.473 2 3-1.406-.473-2.073-1.473-2-3Z" style="opacity:1"/><path fill="#737373" d="M481.5 565.5c.073 1.527-.594 2.527-2 3-.073-1.527.594-2.527 2-3Z" style="opacity:1"/><path fill="#5e5e5e" d="M83.5 580.5c-.252 3.827-1.585 7.16-4 10 .763-3.637 2.097-6.97 4-10Z" style="opacity:1"/><path fill="#727272" d="M457.5 608.5c.073 1.527-.594 2.527-2 3-.073-1.527.594-2.527 2-3Z" style="opacity:1"/><path fill="#636363" d="M72.5 609.5c-.252 3.827-1.585 7.16-4 10 .763-3.637 2.097-6.97 4-10Z" style="opacity:1"/><path fill="#9d9d9d" d="M719.5 612.5c1.793 1.926 2.793 4.259 3 7-1.793-1.926-2.793-4.259-3-7Z" style="opacity:1"/><path fill="#a0a0a0" d="M66.5 624.5v3c3.189.358 6.189 1.025 9 2a23.833 23.833 0 0 1-9-1c-1.282-1.458-1.282-2.792 0-4Z" style="opacity:1"/><path fill="#757575" d="M418.5 630.5c.073 1.527-.594 2.527-2 3-.073-1.527.594-2.527 2-3Z" style="opacity:1"/><path fill="#898989" d="M108.5 634.5a301.087 301.087 0 0 1 34 6c-11.607-1.155-22.94-3.155-34-6Z" style="opacity:1"/><path fill="#c5c5c5" d="M687.5 635.5a937.998 937.998 0 0 1-60 10 563.202 563.202 0 0 1 60-10Z" style="opacity:1"/><path fill="#858585" d="M170.5 644.5a551.114 551.114 0 0 1 46 8c-15.644-1.606-30.978-4.273-46-8Z" style="opacity:1"/><path fill="#bfbfbf" d="M610.5 647.5c-12.986 3.594-26.32 5.928-40 7a416.943 416.943 0 0 1 40-7Z" style="opacity:1"/><path fill="#4c4c4c" d="M713.5 656.5c-4.126-.343-8.459-.343-13 0 5.782-1.707 11.782-2.54 18-2.5l-5 2.5Z" style="opacity:1"/><path fill="#515151" d="M83.5 655.5c-1.915-.284-3.581.049-5 1-1.923-.295-3.59-1.128-5-2.5 3.533-.243 6.867.257 10 1.5Z" style="opacity:1"/><path fill="#030303" d="M83.5 655.5c5.653.775 11.32 1.442 17 2a551.257 551.257 0 0 0 46 8 2075.45 2075.45 0 0 0 40 6c14.375 3.395 29.041 5.728 44 7a195.167 195.167 0 0 0 25 4c12.38 3.062 25.046 5.062 38 6a112.906 112.906 0 0 0 19 3 525.398 525.398 0 0 0 55 9 87.89 87.89 0 0 0 13 2c.709.904 1.709 1.237 3 1 .332 42.837-.001 85.503-1 128l-8-4c-.473-1.406-1.473-2.073-3-2-18.675-10.67-37.341-21.337-56-32-.473-1.406-1.473-2.073-3-2a32398.173 32398.173 0 0 1-207-119c-.473-1.406-1.473-2.073-3-2-5.306-2.988-10.64-5.988-16-9-.473-1.406-1.473-2.073-3-2-2.174-.25-3.84-1.25-5-3 1.419-.951 3.085-1.284 5-1Zm81 31a17877.016 17877.016 0 0 1 202 116c1-28.325 1.333-56.659 1-85a11389.31 11389.31 0 0 1-200.5-32c-1.07.028-1.903.361-2.5 1Z" style="opacity:.939"/><path fill="#010101" d="M713.5 656.5a14102.62 14102.62 0 0 0-194 112c-2.174.25-3.841 1.25-5 3a4141.56 4141.56 0 0 0-106 61c-.999-42.83-1.332-85.83-1-129a754.026 754.026 0 0 1 24-4c4.6.22 8.933-.446 13-2 7.921-.597 15.587-1.93 23-4a2378.57 2378.57 0 0 1 39-6c8.267-.489 16.267-1.822 24-4a2375.26 2375.26 0 0 1 39-6c12.267-1.156 24.267-3.156 36-6a1020.405 1020.405 0 0 0 28-4c7.89-.79 15.557-2.123 23-4 6.232-.372 12.232-1.372 18-3a526.9 526.9 0 0 0 26-4c4.541-.343 8.874-.343 13 0Zm-91 29a6873.41 6873.41 0 0 1-199 32c-.167 28.669 0 57.335.5 86A20418.596 20418.596 0 0 1 627.5 686a12.93 12.93 0 0 0-5-.5Z" style="opacity:.944"/><path fill="#adadad" d="M100.5 657.5c15.634 1.605 30.967 4.271 46 8a551.257 551.257 0 0 1-46-8Z" style="opacity:1"/><path fill="gray" d="M238.5 655.5a551.257 551.257 0 0 1 46 8 331.319 331.319 0 0 1-46-8Z" style="opacity:1"/><path fill="#757575" d="M83.5 659.5c1.527-.073 2.527.594 3 2-1.527.073-2.527-.594-3-2Z" style="opacity:1"/><path fill="#9b9b9b" d="M674.5 660.5c-5.768 1.628-11.768 2.628-18 3 5.696-2.061 11.696-3.061 18-3Z" style="opacity:1"/><path fill="#b8b8b8" d="M546.5 658.5a378.443 378.443 0 0 1-44 7c14.384-3.339 29.051-5.672 44-7Z" style="opacity:1"/><path fill="#6c6c6c" d="M656.5 663.5c-7.443 1.877-15.11 3.21-23 4 7.375-2.286 15.041-3.619 23-4Z" style="opacity:1"/><path fill="#727272" d="M424.5 667.5c.073 1.527-.594 2.527-2 3-.073-1.527.594-2.527 2-3Z" style="opacity:1"/><path fill="#787878" d="M102.5 670.5c1.527-.073 2.527.594 3 2-1.527.073-2.527-.594-3-2Z" style="opacity:1"/><path fill="#999" d="M186.5 671.5a504.703 504.703 0 0 1 44 7c-14.959-1.272-29.625-3.605-44-7Z" style="opacity:1"/><path fill="#898989" d="M306.5 666.5a452.565 452.565 0 0 1 45 8 352.376 352.376 0 0 1-45-8Z" style="opacity:1"/><path fill="#b1b1b1" d="M478.5 669.5c-12.406 2.844-25.073 4.844-38 6 12.375-3.061 25.042-5.061 38-6Z" style="opacity:1"/><path fill="#858585" d="M605.5 671.5c-11.733 2.844-23.733 4.844-36 6 11.727-2.922 23.727-4.922 36-6Z" style="opacity:1"/><path fill="#9e9e9e" d="M255.5 682.5a376.728 376.728 0 0 1 38 6c-12.954-.938-25.62-2.938-38-6Z" style="opacity:1"/><path fill="gray" d="M530.5 683.5c-7.733 2.178-15.733 3.511-24 4 7.733-2.178 15.733-3.511 24-4Z" style="opacity:1"/><path fill="#a4a4a4" d="M312.5 691.5a675.442 675.442 0 0 1 55 9 525.398 525.398 0 0 1-55-9Z" style="opacity:1"/><path fill="#8d8d8d" d="M467.5 693.5c-7.413 2.07-15.079 3.403-23 4 7.375-2.286 15.041-3.619 23-4Z" style="opacity:1"/><path fill="#676767" d="M444.5 697.5c-4.067 1.554-8.4 2.22-13 2 4.091-1.395 8.424-2.062 13-2Z" style="opacity:1"/><path fill="#c3c3c3" d="M407.5 703.5c-.332 43.17.001 86.17 1 129-.06.543-.393.876-1 1a2116.695 2116.695 0 0 1 0-130Z" style="opacity:1"/><path fill="#5b5b5b" d="M380.5 702.5h4c.167 43.668 0 87.335-.5 131-.717-.544-1.217-1.211-1.5-2a4095.618 4095.618 0 0 0 1-128c-1.291.237-2.291-.096-3-1Z" style="opacity:1"/><path fill="#7c7c7c" d="M179.5 741.5c1.527-.073 2.527.594 3 2-1.527.073-2.527-.594-3-2Z" style="opacity:1"/><path fill="#a1a1a1" d="M519.5 768.5c-.986 1.908-2.652 2.908-5 3 1.159-1.75 2.826-2.75 5-3Z" style="opacity:1"/><path fill="#717171" d="M312.5 791.5c1.527-.073 2.527.594 3 2-1.527.073-2.527-.594-3-2Z" style="opacity:1"/><path fill="#707070" d="M371.5 825.5c1.527-.073 2.527.594 3 2-1.527.073-2.527-.594-3-2Z" style="opacity:1"/><path fill="#7c7c7c" d="M333.5 830.5c1.527-.073 2.527.594 3 2-1.527.073-2.527-.594-3-2Z" style="opacity:1"/><path fill="#767676" d="M390.5 863.5c1.527-.073 2.527.594 3 2-1.527.073-2.527-.594-3-2Z" style="opacity:1"/></svg>