<svg xml:space="preserve" width="50.389" height="58.248" class="icon-s-0" data-fill-palette-color="accent" viewBox="17.3 12.2 65.4 75.6" enable-background="new 0 0 100 100"><path fill="#d90004" d="M50 12.2 17.3 31.1v37.8L50 87.8l32.7-18.9V31.1L50 12.2zM32.1 37.4 50 16l17 21.4H32.1zm35.2 2L50 70.4l-18.2-31h35.5zM48.1 71l-27.7-4.5 9.8-25.9L48.1 71zm20.8-30.3 10.7 25.9-27.7 4.5 17-30.4zm.3-3.6L52.6 16l27 15.6-10.4 5.5zm-39.4 0-9.4-5.5 26.8-15.5-17.4 21zm-1 1.7-9.5 25V33.3l9.5 5.5zM49 73.2v11.7L20.9 68.7 49 73.2zm2 0 28.1-4.5L51 84.9V73.2zm19.3-34.4 10.5-5.6v30.9L70.3 38.8z" data-fill-palette-color="accent" style="--darkreader-inline-fill:#000000"/></svg>