<svg xmlns="http://www.w3.org/2000/svg" xmlns:svg="http://www.w3.org/2000/svg" id="svg86" width="290" height="100" color-interpolation-filters="sRGB" preserveAspectRatio="xMidYMid" version="1.0" viewBox="0 0 290 100"><g id="g82" fill="#e69b41" class="iconlettersvg-g iconlettersvg" transform="translate(1.4076897,1.3165073)"><g id="g68"><g id="g66" class="tp-name"><g id="g64" transform="scale(1.96)"><g id="g24"><g id="g22" class="name-imagesvg"><g id="g20"><rect id="rect6" width="49.882" height="50" x="0" y="0" fill="#e69b41" fill-opacity="0" stroke-width="2" class="image-rect"/><svg id="svg18" width="49.882" height="50" x="0" y="0" class="image-svg-svg primary" filtersec="colorsb7657958153" style="overflow:visible" version="1.1"><svg id="svg16" width="100%" height="100%" version="1.1" viewBox="0 0 127.14 127.44"><title id="title8">资源 14</title><path id="path10" fill="#fdf3eb" d="M 127.14,127.44 63.56,63.87 0,127.44 Z" style="fill:#f5eff9;fill-opacity:1"/><path id="path12" fill="#e69b41" d="M 127.14,127.44 V 0 L 63.56,63.87 Z" style="fill:#262930;fill-opacity:1"/><path id="path14" fill="#fdf3eb" d="M 0,0 V 127.44 L 63.56,63.87 Z" style="fill:#865dff;fill-opacity:1"/></svg></svg></g></g></g><g id="g42" transform="translate(44.882296)"><g id="g40" class="name-imagesvg"><g id="g38"><rect id="rect26" width="50" height="50" x="0" y="0" fill="#e69b41" fill-opacity="0" stroke-width="2" class="image-rect"/><svg id="svg36" width="50" height="50" x="0" y="0" class="image-svg-svg primary" filtersec="colorsb4757034354" style="overflow:visible" version="1.1"><svg id="svg34" width="100%" height="100%" version="1.1" viewBox="0 0 131.94 131.94"><title id="title28">资源 25</title><path id="path30" fill="#fdf3eb" d="M 66,0 A 66,66 0 1 1 0,66 66,66 0 0 1 66,0 Z" style="fill:#865dff;fill-opacity:1"/><path id="path32" fill="#e69b41" d="m 66,0 a 65.95,65.95 0 0 1 46.48,112.75 L 19.19,19.19 A 67,67 0 0 1 66,0 Z" style="fill:#262930;fill-opacity:1"/></svg></svg></g></g></g><g id="g62" transform="translate(89.882296)"><g id="g60" class="name-imagesvg"><g id="g58"><rect id="rect44" width="56.823" height="50" x="0" y="0" fill="#e69b41" fill-opacity="0" stroke-width="2" class="image-rect"/><svg id="svg56" width="56.823" height="50" x="0" y="0" class="image-svg-svg primary" filtersec="colorsb9114772040" style="overflow:visible" version="1.1"><svg id="svg54" width="100%" height="100%" version="1.1" viewBox="0 0 144.83 127.44"><title id="title46">资源 3</title><path id="path48" fill="#fdf3eb" d="M 0,127.44 H 50.38 L 97.45,44.38 72.27,0 Z" style="fill:#865dff;fill-opacity:1"/><path id="path50" fill="#e69b41" d="M 144.83,127.44 H 94.45 L 47.08,44.38 72.27,0 Z" style="fill:#262930;fill-opacity:1"/><path id="path52" fill="#e69b41" d="M 72.27,88.76 97.45,44.38 72.27,0 47.08,44.38 Z" style="fill:#f5eff9;fill-opacity:1;image-rendering:auto"/></svg></svg></g></g></g></g></g></g></g></svg>