<svg width="1000" height="373"><svg width="1000" height="373" data-background-color="#528265" transform="translate(.312 -.812)" viewBox="0 0 241 90"><svg width="241.15" height="89.608" transform="translate(-.075 .196)" viewBox="0 0 241.15 89.608"><svg width="241.15" height="89.608" viewBox="0 0 241.15 89.608"><svg width="241.15" height="89.608" viewBox="0 0 241.15 89.608"><svg width="241.15" height="89.608" viewBox="0 0 241.15 89.608"><svg width="241.15" height="58.248" viewBox="0 0 241.15 58.248"><svg/><svg><svg/></svg><svg width="241.15" height="58.248" viewBox="0 0 241.15 58.248"><svg xml:space="preserve" width="50.389" height="58.248" class="icon-s-0" data-fill-palette-color="accent" viewBox="17.3 12.2 65.4 75.6" enable-background="new 0 0 100 100"><path fill="#fff" d="M50 12.2 17.3 31.1v37.8L50 87.8l32.7-18.9V31.1L50 12.2zM32.1 37.4 50 16l17 21.4H32.1zm35.2 2L50 70.4l-18.2-31h35.5zM48.1 71l-27.7-4.5 9.8-25.9L48.1 71zm20.8-30.3 10.7 25.9-27.7 4.5 17-30.4zm.3-3.6L52.6 16l27 15.6-10.4 5.5zm-39.4 0-9.4-5.5 26.8-15.5-17.4 21zm-1 1.7-9.5 25V33.3l9.5 5.5zM49 73.2v11.7L20.9 68.7 49 73.2zm2 0 28.1-4.5L51 84.9V73.2zm19.3-34.4 10.5-5.6v30.9L70.3 38.8z" data-fill-palette-color="accent"/></svg><svg width="177.009" height="58.248" data-palette-color="#ffffff" transform="translate(64.141)" viewBox="3.7 -35.75 109.4 36"><path fill="#fff" d="M39.55 0h-6.9v-23.3l-9.1 17.35H19.7L10.6-23.3V0H3.7v-35.5h7.4l10.5 20.2 10.6-20.2h7.35V0ZM62.1.25q-3.9 0-7.08-1.5-3.17-1.5-5.45-4.08-2.27-2.57-3.52-5.8-1.25-3.22-1.25-6.62 0-3.55 1.32-6.78 1.33-3.22 3.65-5.75 2.33-2.52 5.5-3.99 3.18-1.48 6.98-1.48 3.85 0 7.02 1.55 3.18 1.55 5.43 4.15 2.25 2.6 3.5 5.8 1.25 3.2 1.25 6.6 0 3.5-1.3 6.72-1.3 3.23-3.63 5.75-2.32 2.53-5.5 3.98Q65.85.25 62.1.25Zm-10.3-18q0 2.3.7 4.45.7 2.15 2.02 3.83 1.33 1.67 3.25 2.64 1.93.98 4.38.98 2.5 0 4.45-1.03 1.95-1.02 3.25-2.75 1.3-1.72 1.97-3.85.68-2.12.68-4.27 0-2.3-.73-4.43-.72-2.12-2.05-3.8-1.32-1.67-3.25-2.65-1.92-.97-4.32-.97-2.55 0-4.48 1.02-1.92 1.03-3.22 2.73-1.3 1.7-1.98 3.8-.67 2.1-.67 4.3ZM79.95 0l13.1-35.5h7L113.1 0H106l-3.3-8.85H90.3L87.05 0h-7.1Zm11.5-13.7h10l-4.9-14.65-5.1 14.65Z" class="wordmark-text-0" data-fill-palette-color="primary"/></svg></svg></svg><svg width="149.031" height="17.609" transform="translate(46.06 71.999)" viewBox="0 0 149.031 17.609"><svg width="149.031" height="17.609" data-palette-color="#ffffff" viewBox="4 -33.25 287.72 34"><path fill="#fff" d="M20.9-6.25q0 7-8.45 7T4-6.25v-4.25h3.5v4.45q0 1.8 1.25 2.8 1.25 1 3.7 1t3.7-1q1.25-1 1.25-2.73 0-1.72-.37-2.74-.38-1.03-1.53-2.18l-8.8-8.6q-1.55-1.55-2.12-3.03Q4-24 4-26.25q0-3.35 2.08-5.18 2.07-1.82 6.27-1.82 8.05 0 8.05 7V-22h-3.5v-4.45q0-1.8-1.17-2.8-1.18-1-3.53-1-2.35 0-3.52 1-1.18 1-1.18 2.75t.35 2.75q.35 1 1.55 2.1l8.95 8.6q1.45 1.6 2 3.07.55 1.48.55 3.73Zm21.25 0V-9h3.5v2.75q0 3.35-2.05 5.18Q41.55.75 37.45.75q-4.1 0-6.2-1.82-2.1-1.83-2.1-5.18v-20q0-3.35 2.05-5.18 2.05-1.82 6.15-1.82 4.1 0 6.2 1.82 2.1 1.83 2.1 5.18v11h-13v9q0 4 4.75 4t4.75-4Zm-9.5-20v8h9.5v-8q0-4-4.75-4t-4.75 4Zm37.75 0V0h-1.5l-1.31-3.2q-1.04 1.8-2.75 2.87Q63.15.75 61.1.75q-7.2 0-7.2-7v-5q0-7 7.2-7h5.8v-8.2q0-1.8-1.15-2.8-1.16-1-3.4-1-4.45 0-4.45 3.8v2.95h-3.5v-2.75q0-3.35 1.97-5.18 1.98-1.82 5.98-1.82 3.99 0 6.02 1.82 2.03 1.83 2.03 5.18ZM66.9-7.1v-8.15h-5.8q-2.1 0-2.9 1.05-.8 1.05-.8 2.95v5q0 1.9.8 2.95.8 1.05 2.9 1.05 2.1 0 3.9-1.63 1.8-1.62 1.9-3.22Zm16.49-15.75V0h-3.5v-32.5h1.5l1.45 3.7q1.6-4.45 5.1-4.45 5.95 0 5.95 6.5v3.25h-3.35v-3.45q0-3.3-2.75-3.3-1.65 0-3.02 1.9-1.38 1.9-1.38 5.5Zm28.75 16.6V-9h3.5v2.75q0 3.35-2.05 5.18-2.05 1.82-6.15 1.82-4.1 0-6.2-1.82-2.1-1.83-2.1-5.18v-20q0-3.35 2.05-5.18 2.05-1.82 6.15-1.82 4.1 0 6.2 1.82 2.1 1.83 2.1 5.18v4.75h-3.5v-4.75q0-4-4.75-4t-4.75 4v20q0 4 4.75 4t4.75-4ZM127.89-15V0h-3.5v-32.5h3.5V-18h9.85v-14.5h3.5V0h-3.5v-15h-9.85Zm49.59 12v3h-14.75v-32.5h14.25v3h-10.75V-18h8.75v3h-8.75v12h11.25Zm11-22.25V0h-3.5v-32.5h1.5l1.25 3.25q2.4-4 6.65-4 7.35 0 7.35 7V0h-3.5v-26.25q0-1.9-.82-2.95-.83-1.05-3.03-1.05-2.2 0-4.05 1.7-1.85 1.7-1.85 3.3Zm35 11.75h-5.6v-3h9.1v10.25q0 3.35-2.05 5.18-2.05 1.82-6.15 1.82-4.1 0-6.2-1.82-2.1-1.83-2.1-5.18v-20q0-3.35 2.05-5.18 2.05-1.82 6.15-1.82 4.1 0 6.2 1.82 2.1 1.83 2.1 5.18v2.75h-3.5v-2.75q0-4-4.75-4t-4.75 4v20q0 4 4.75 4t4.75-4v-7.25Zm16.25-19V0h-3.5v-32.5h3.5Zm13.49 7.25V0h-3.5v-32.5h1.5l1.25 3.25q2.4-4 6.65-4 7.35 0 7.35 7V0h-3.5v-26.25q0-1.9-.82-2.95-.83-1.05-3.03-1.05-2.2 0-4.05 1.7-1.85 1.7-1.85 3.3Zm35 19V-9h3.5v2.75q0 3.35-2.05 5.18-2.05 1.82-6.15 1.82-4.1 0-6.2-1.82-2.1-1.83-2.1-5.18v-20q0-3.35 2.05-5.18 2.05-1.82 6.15-1.82 4.1 0 6.2 1.82 2.1 1.83 2.1 5.18v11h-13v9q0 4 4.75 4t4.75-4Zm-9.5-20v8h9.5v-8q0-4-4.75-4t-4.75 4Z" class="slogan-text-1" data-fill-palette-color="secondary"/></svg></svg></svg></svg></svg></svg></svg></svg>