<?xml version="1.0" encoding="UTF-8" standalone="no"?>
<svg
   data-v-6805eed4=""
   version="1.0"
   width="100%"
   height="100%"
   viewBox="0 0 340.000000 250.000000"
   preserveAspectRatio="xMidYMid meet"
   color-interpolation-filters="sRGB"
   style="margin: auto;"
   id="svg86"
   sodipodi:docname="logo2.svg"
   inkscape:version="1.2.2 (b0a8486541, 2022-12-01)"
   xmlns:inkscape="http://www.inkscape.org/namespaces/inkscape"
   xmlns:sodipodi="http://sodipodi.sourceforge.net/DTD/sodipodi-0.dtd"
   xmlns="http://www.w3.org/2000/svg"
   xmlns:svg="http://www.w3.org/2000/svg">
  <sodipodi:namedview
     id="namedview88"
     pagecolor="#505050"
     bordercolor="#ffffff"
     borderopacity="1"
     inkscape:showpageshadow="0"
     inkscape:pageopacity="0"
     inkscape:pagecheckerboard="1"
     inkscape:deskcolor="#505050"
     showgrid="false"
     inkscape:zoom="1.7218441"
     inkscape:cx="136.48158"
     inkscape:cy="114.99299"
     inkscape:window-width="1366"
     inkscape:window-height="739"
     inkscape:window-x="0"
     inkscape:window-y="0"
     inkscape:window-maximized="1"
     inkscape:current-layer="svg86" />
  <g
     data-v-6805eed4=""
     fill="#e69b41"
     class="iconlettersvg-g iconlettersvg"
     transform="translate(26.228988647460938,66.12767791748047)"
     id="g82">
    <g
       id="g68">
      <g
         class="tp-name"
         id="g66"
         transform="translate(0,0)">
        <g
           transform="scale(1.9600000000000009)"
           id="g64">
          <g
             id="g24"
             transform="translate(0, 0)">
            <g
               class="name-imagesvg"
               id="g22">
              <g
                 id="g20">
                <rect
                   fill="#e69b41"
                   fill-opacity="0"
                   stroke-width="2"
                   x="0"
                   y="0"
                   width="49.88229635671274"
                   height="50"
                   class="image-rect"
                   id="rect6" />
                <svg
                   x="0"
                   y="0"
                   width="49.88229635671274"
                   height="50"
                   filtersec="colorsb7657958153"
                   class="image-svg-svg primary"
                   style="overflow: visible;"
                   version="1.1"
                   id="svg18">
                  <svg
                     viewBox="0 0 127.14 127.44"
                     version="1.1"
                     id="svg16">
                    <title
                       id="title8">资源 14</title>
                    <path
                       fill="#fdf3eb"
                       d="M127.14 127.44L63.56 63.87 0 127.44h127.14z"
                       id="path10"
                       style="fill:#f5eff9;fill-opacity:1" />
                    <path
                       fill="#e69b41"
                       d="M127.14 127.44V0L63.56 63.87l63.58 63.57z"
                       id="path12"
                       style="fill:#262930;fill-opacity:1" />
                    <path
                       fill="#fdf3eb"
                       d="M0 0v127.44l63.56-63.57L0 0z"
                       id="path14"
                       style="fill:#865dff;fill-opacity:1" />
                  </svg>
                </svg>
                <!---->
              </g>
            </g>
          </g>
          <g
             transform="translate(44.88229635671274, 0)"
             id="g42">
            <g
               class="name-imagesvg"
               id="g40">
              <g
                 id="g38">
                <rect
                   fill="#e69b41"
                   fill-opacity="0"
                   stroke-width="2"
                   x="0"
                   y="0"
                   width="50"
                   height="50"
                   class="image-rect"
                   id="rect26" />
                <svg
                   x="0"
                   y="0"
                   width="50"
                   height="50"
                   filtersec="colorsb4757034354"
                   class="image-svg-svg primary"
                   style="overflow: visible;"
                   version="1.1"
                   id="svg36">
                  <svg
                     viewBox="0 0 131.94 131.94"
                     version="1.1"
                     id="svg34">
                    <title
                       id="title28">资源 25</title>
                    <path
                       d="M66 0A66 66 0 1 1 0 66 66 66 0 0 1 66 0z"
                       fill="#fdf3eb"
                       id="path30"
                       style="fill:#865dff;fill-opacity:1" />
                    <path
                       d="M66 0a65.95 65.95 0 0 1 46.48 112.75L19.19 19.19A67 67 0 0 1 66 0z"
                       fill="#e69b41"
                       id="path32"
                       style="fill:#262930;fill-opacity:1" />
                  </svg>
                </svg>
                <!---->
              </g>
            </g>
          </g>
          <g
             transform="translate(89.88229635671274, 0)"
             id="g62">
            <g
               class="name-imagesvg"
               id="g60">
              <g
                 id="g58">
                <rect
                   fill="#e69b41"
                   fill-opacity="0"
                   stroke-width="2"
                   x="0"
                   y="0"
                   width="56.82281821112014"
                   height="50"
                   class="image-rect"
                   id="rect44" />
                <svg
                   x="0"
                   y="0"
                   width="56.82281821112014"
                   height="50"
                   filtersec="colorsb9114772040"
                   class="image-svg-svg primary"
                   style="overflow: visible;"
                   version="1.1"
                   id="svg56">
                  <svg
                     viewBox="0 0 144.83 127.44"
                     version="1.1"
                     id="svg54">
                    <title
                       id="title46">资源 3</title>
                    <path
                       fill="#fdf3eb"
                       d="M0 127.44h50.38l47.07-83.06L72.27 0 0 127.44z"
                       id="path48"
                       style="fill:#865dff;fill-opacity:1" />
                    <path
                       fill="#e69b41"
                       d="M144.83 127.44H94.45L47.08 44.38 72.27 0l72.56 127.44z"
                       id="path50"
                       style="fill:#262930;fill-opacity:1" />
                    <path
                       fill="#e69b41"
                       d="M 72.27,88.76 97.45,44.38 72.27,0 47.08,44.38 Z"
                       id="path52"
                       style="image-rendering:auto;fill:#f5eff9;fill-opacity:1"
                       inkscape:highlight-color="#ffffff" />
                  </svg>
                </svg>
                <!---->
              </g>
            </g>
          </g>
        </g>
      </g>
    </g>
    <g
       data-gra="path-slogan"
       fill-rule=""
       class="tp-slogan"
       fill="#fdf3eb"
       transform="translate(5,106)"
       id="g80">
      <rect
         x="0"
         height="1"
         y="5.3752007484436035"
         width="68.82540893554688"
         id="rect70" />
      <rect
         height="1"
         y="5.3752007484436035"
         width="68.82540893554688"
         x="208.71661376953125"
         id="rect72" />
      <g
         transform="translate(71.82540893554688,0)"
         id="g78">
        <g
           transform="scale(1.4400000000000004)"
           id="g76">
          <path
             d="M0.50-1.02L1.10-1.72Q1.52-1.27 2.09-1.00Q2.66-0.73 3.28-0.73L3.28-0.73Q4.06-0.73 4.49-1.09Q4.92-1.44 4.92-2.02L4.92-2.02Q4.92-2.32 4.82-2.53Q4.72-2.74 4.54-2.89Q4.37-3.04 4.13-3.16Q3.89-3.28 3.61-3.41L3.61-3.41L2.48-3.90Q2.21-4.02 1.92-4.19Q1.63-4.36 1.40-4.60Q1.18-4.84 1.03-5.17Q0.89-5.50 0.89-5.93L0.89-5.93Q0.89-6.37 1.07-6.76Q1.26-7.14 1.59-7.42Q1.92-7.70 2.37-7.86Q2.82-8.02 3.36-8.02L3.36-8.02Q4.07-8.02 4.67-7.75Q5.27-7.48 5.69-7.04L5.69-7.04L5.15-6.40Q4.79-6.74 4.35-6.94Q3.91-7.14 3.36-7.14L3.36-7.14Q2.70-7.14 2.30-6.83Q1.90-6.53 1.90-5.99L1.90-5.99Q1.90-5.70 2.01-5.50Q2.12-5.30 2.32-5.15Q2.51-5.00 2.74-4.89Q2.96-4.78 3.20-4.68L3.20-4.68L4.32-4.20Q4.66-4.06 4.96-3.87Q5.26-3.68 5.47-3.44Q5.69-3.19 5.81-2.86Q5.94-2.53 5.94-2.10L5.94-2.10Q5.94-1.63 5.75-1.22Q5.57-0.82 5.22-0.51Q4.87-0.20 4.38-0.03Q3.89 0.14 3.26 0.14L3.26 0.14Q2.44 0.14 1.73-0.17Q1.02-0.48 0.50-1.02L0.50-1.02ZM8.49 0L8.49-7.87L13.02-7.87L13.02-7.03L9.48-7.03L9.48-4.56L12.47-4.56L12.47-3.71L9.48-3.71L9.48-0.85L13.14-0.85L13.14 0L8.49 0ZM16.80-3.20L19.16-3.20L18.79-4.40Q18.57-5.06 18.38-5.72Q18.19-6.37 18.00-7.06L18.00-7.06L17.95-7.06Q17.77-6.37 17.58-5.72Q17.38-5.06 17.17-4.40L17.17-4.40L16.80-3.20ZM20.16 0L19.41-2.40L16.54-2.40L15.79 0L14.77 0L17.43-7.87L18.56-7.87L21.22 0L20.16 0ZM24.34-7.07L24.34-4.14L25.66-4.14Q26.58-4.14 27.07-4.52Q27.56-4.90 27.56-5.66L27.56-5.66Q27.56-6.44 27.07-6.76Q26.58-7.07 25.66-7.07L25.66-7.07L24.34-7.07ZM28.79 0L27.66 0L25.76-3.32L24.34-3.32L24.34 0L23.34 0L23.34-7.87L25.80-7.87Q26.40-7.87 26.91-7.76Q27.42-7.64 27.79-7.38Q28.15-7.12 28.36-6.70Q28.56-6.28 28.56-5.66L28.56-5.66Q28.56-4.74 28.08-4.19Q27.60-3.64 26.80-3.43L26.80-3.43L28.79 0ZM30.86-3.94L30.86-3.94Q30.86-4.88 31.12-5.64Q31.38-6.40 31.85-6.92Q32.32-7.45 32.96-7.73Q33.60-8.02 34.36-8.02L34.36-8.02Q35.08-8.02 35.62-7.72Q36.16-7.43 36.51-7.04L36.51-7.04L35.94-6.41Q35.63-6.74 35.25-6.94Q34.88-7.14 34.37-7.14L34.37-7.14Q33.81-7.14 33.35-6.92Q32.90-6.70 32.57-6.28Q32.25-5.87 32.07-5.28Q31.89-4.69 31.89-3.96L31.89-3.96Q31.89-3.22 32.06-2.62Q32.24-2.03 32.55-1.61Q32.86-1.19 33.31-0.96Q33.76-0.73 34.32-0.73L34.32-0.73Q34.90-0.73 35.33-0.96Q35.75-1.19 36.14-1.61L36.14-1.61L36.70-1.00Q36.23-0.46 35.64-0.16Q35.06 0.14 34.30 0.14L34.30 0.14Q33.56 0.14 32.93-0.13Q32.30-0.41 31.83-0.93Q31.37-1.45 31.11-2.21Q30.86-2.98 30.86-3.94ZM39.16 0L39.16-7.87L40.16-7.87L40.16-4.57L43.82-4.57L43.82-7.87L44.83-7.87L44.83 0L43.82 0L43.82-3.71L40.16-3.71L40.16 0L39.16 0ZM51.41 0L51.41-7.87L55.95-7.87L55.95-7.03L52.41-7.03L52.41-4.56L55.40-4.56L55.40-3.71L52.41-3.71L52.41-0.85L56.07-0.85L56.07 0L51.41 0ZM58.74 0L58.74-7.87L59.77-7.87L62.61-2.93L63.46-1.30L63.51-1.30Q63.48-1.90 63.43-2.54Q63.39-3.18 63.39-3.80L63.39-3.80L63.39-7.87L64.34-7.87L64.34 0L63.31 0L60.45-4.96L59.60-6.58L59.55-6.58Q59.60-5.98 59.64-5.36Q59.68-4.74 59.68-4.12L59.68-4.12L59.68 0L58.74 0ZM67.04-3.94L67.04-3.94Q67.04-4.88 67.31-5.64Q67.58-6.40 68.07-6.92Q68.56-7.45 69.22-7.73Q69.88-8.02 70.67-8.02L70.67-8.02Q71.48-8.02 72.03-7.71Q72.58-7.40 72.92-7.04L72.92-7.04L72.36-6.41Q72.06-6.72 71.67-6.93Q71.28-7.14 70.68-7.14L70.68-7.14Q70.08-7.14 69.60-6.92Q69.12-6.70 68.78-6.28Q68.45-5.87 68.26-5.28Q68.08-4.69 68.08-3.96L68.08-3.96Q68.08-3.22 68.25-2.62Q68.42-2.03 68.75-1.61Q69.08-1.19 69.57-0.96Q70.06-0.73 70.69-0.73L70.69-0.73Q71.11-0.73 71.49-0.86Q71.87-0.98 72.11-1.20L72.11-1.20L72.11-3.25L70.44-3.25L70.44-4.08L73.02-4.08L73.02-0.77Q72.64-0.37 72.01-0.11Q71.38 0.14 70.58 0.14L70.58 0.14Q69.80 0.14 69.16-0.13Q68.51-0.41 68.04-0.93Q67.57-1.45 67.31-2.21Q67.04-2.98 67.04-3.94ZM75.90 0L75.90-7.87L76.90-7.87L76.90 0L75.90 0ZM80.06 0L80.06-7.87L81.09-7.87L83.94-2.93L84.79-1.30L84.84-1.30Q84.80-1.90 84.76-2.54Q84.72-3.18 84.72-3.80L84.72-3.80L84.72-7.87L85.66-7.87L85.66 0L84.63 0L81.78-4.96L80.92-6.58L80.88-6.58Q80.92-5.98 80.97-5.36Q81.01-4.74 81.01-4.12L81.01-4.12L81.01 0L80.06 0ZM88.82 0L88.82-7.87L93.36-7.87L93.36-7.03L89.82-7.03L89.82-4.56L92.81-4.56L92.81-3.71L89.82-3.71L89.82-0.85L93.48-0.85L93.48 0L88.82 0Z"
             transform="translate(-0.504, 8.016)"
             id="path74" />
        </g>
      </g>
    </g>
  </g>
  <defs
     v-gra="od"
     id="defs84" />
</svg>
