<svg xmlns="http://www.w3.org/2000/svg" xmlns:svg="http://www.w3.org/2000/svg" id="svg86" width="300" height="125" color-interpolation-filters="sRGB" preserveAspectRatio="xMidYMid" version="1.0" viewBox="0 0 300 125"><g id="g82" fill="#e69b41" class="iconlettersvg-g iconlettersvg" transform="translate(6.4827181,2.8234567)"><g id="g68"><g id="g66" class="tp-name"><g id="g64" transform="scale(1.96)"><g id="g24"><g id="g22" class="name-imagesvg"><g id="g20"><rect id="rect6" width="49.882" height="50" x="0" y="0" fill="#e69b41" fill-opacity="0" stroke-width="2" class="image-rect"/><svg id="svg18" width="49.882" height="50" x="0" y="0" class="image-svg-svg primary" filtersec="colorsb7657958153" style="overflow:visible" version="1.1"><svg id="svg16" width="100%" height="100%" version="1.1" viewBox="0 0 127.14 127.44"><title id="title8">资源 14</title><path id="path10" fill="#fdf3eb" d="M 127.14,127.44 63.56,63.87 0,127.44 Z" style="fill:#f5eff9;fill-opacity:1"/><path id="path12" fill="#e69b41" d="M 127.14,127.44 V 0 L 63.56,63.87 Z" style="fill:#262930;fill-opacity:1"/><path id="path14" fill="#fdf3eb" d="M 0,0 V 127.44 L 63.56,63.87 Z" style="fill:#865dff;fill-opacity:1"/></svg></svg></g></g></g><g id="g42" transform="translate(44.882296)"><g id="g40" class="name-imagesvg"><g id="g38"><rect id="rect26" width="50" height="50" x="0" y="0" fill="#e69b41" fill-opacity="0" stroke-width="2" class="image-rect"/><svg id="svg36" width="50" height="50" x="0" y="0" class="image-svg-svg primary" filtersec="colorsb4757034354" style="overflow:visible" version="1.1"><svg id="svg34" width="100%" height="100%" version="1.1" viewBox="0 0 131.94 131.94"><title id="title28">资源 25</title><path id="path30" fill="#fdf3eb" d="M 66,0 A 66,66 0 1 1 0,66 66,66 0 0 1 66,0 Z" style="fill:#865dff;fill-opacity:1"/><path id="path32" fill="#e69b41" d="m 66,0 a 65.95,65.95 0 0 1 46.48,112.75 L 19.19,19.19 A 67,67 0 0 1 66,0 Z" style="fill:#262930;fill-opacity:1"/></svg></svg></g></g></g><g id="g62" transform="translate(89.882296)"><g id="g60" class="name-imagesvg"><g id="g58"><rect id="rect44" width="56.823" height="50" x="0" y="0" fill="#e69b41" fill-opacity="0" stroke-width="2" class="image-rect"/><svg id="svg56" width="56.823" height="50" x="0" y="0" class="image-svg-svg primary" filtersec="colorsb9114772040" style="overflow:visible" version="1.1"><svg id="svg54" width="100%" height="100%" version="1.1" viewBox="0 0 144.83 127.44"><title id="title46">资源 3</title><path id="path48" fill="#fdf3eb" d="M 0,127.44 H 50.38 L 97.45,44.38 72.27,0 Z" style="fill:#865dff;fill-opacity:1"/><path id="path50" fill="#e69b41" d="M 144.83,127.44 H 94.45 L 47.08,44.38 72.27,0 Z" style="fill:#262930;fill-opacity:1"/><path id="path52" fill="#e69b41" d="M 72.27,88.76 97.45,44.38 72.27,0 47.08,44.38 Z" style="fill:#f5eff9;fill-opacity:1;image-rendering:auto"/></svg></svg></g></g></g></g></g></g><g id="g80" fill="#fdf3eb" class="tp-slogan" data-gra="path-slogan" transform="translate(5,106)"><rect id="rect70" width="68.825" height="1" x="0" y="5.375"/><rect id="rect72" width="68.825" height="1" x="208.717" y="5.375"/><g id="g78" transform="translate(71.825409)"><g id="g76" transform="scale(1.44)"><path id="path74" d="m 0.5,-1.02 0.6,-0.7 q 0.42,0.45 0.99,0.72 0.57,0.27 1.19,0.27 v 0 q 0.78,0 1.21,-0.36 0.43,-0.35 0.43,-0.93 v 0 q 0,-0.3 -0.1,-0.51 Q 4.72,-2.74 4.54,-2.89 4.37,-3.04 4.13,-3.16 3.89,-3.28 3.61,-3.41 v 0 L 2.48,-3.9 Q 2.21,-4.02 1.92,-4.19 1.63,-4.36 1.4,-4.6 1.18,-4.84 1.03,-5.17 0.89,-5.5 0.89,-5.93 v 0 q 0,-0.44 0.18,-0.83 0.19,-0.38 0.52,-0.66 0.33,-0.28 0.78,-0.44 0.45,-0.16 0.99,-0.16 v 0 q 0.71,0 1.31,0.27 0.6,0.27 1.02,0.71 v 0 L 5.15,-6.4 Q 4.79,-6.74 4.35,-6.94 3.91,-7.14 3.36,-7.14 v 0 q -0.66,0 -1.06,0.31 -0.4,0.3 -0.4,0.84 v 0 q 0,0.29 0.11,0.49 0.11,0.2 0.31,0.35 0.19,0.15 0.42,0.26 0.22,0.11 0.46,0.21 v 0 l 1.12,0.48 q 0.34,0.14 0.64,0.33 0.3,0.19 0.51,0.43 0.22,0.25 0.34,0.58 0.13,0.33 0.13,0.76 v 0 q 0,0.47 -0.19,0.88 -0.18,0.4 -0.53,0.71 Q 4.87,-0.2 4.38,-0.03 3.89,0.14 3.26,0.14 v 0 Q 2.44,0.14 1.73,-0.17 1.02,-0.48 0.5,-1.02 Z M 8.49,0 v -7.87 h 4.53 v 0.84 H 9.48 v 2.47 h 2.99 v 0.85 H 9.48 v 2.86 h 3.66 V 0 Z m 8.31,-3.2 h 2.36 L 18.79,-4.4 Q 18.57,-5.06 18.38,-5.72 18.19,-6.37 18,-7.06 v 0 h -0.05 q -0.18,0.69 -0.37,1.34 -0.2,0.66 -0.41,1.32 v 0 z M 20.16,0 19.41,-2.4 H 16.54 L 15.79,0 h -1.02 l 2.66,-7.87 h 1.13 L 21.22,0 Z m 4.18,-7.07 v 2.93 h 1.32 q 0.92,0 1.41,-0.38 0.49,-0.38 0.49,-1.14 v 0 q 0,-0.78 -0.49,-1.1 -0.49,-0.31 -1.41,-0.31 v 0 z M 28.79,0 h -1.13 l -1.9,-3.32 H 24.34 V 0 h -1 v -7.87 h 2.46 q 0.6,0 1.11,0.11 0.51,0.12 0.88,0.38 0.36,0.26 0.57,0.68 0.2,0.42 0.2,1.04 v 0 q 0,0.92 -0.48,1.47 -0.48,0.55 -1.28,0.76 v 0 z m 2.07,-3.94 v 0 q 0,-0.94 0.26,-1.7 0.26,-0.76 0.73,-1.28 0.47,-0.53 1.11,-0.81 0.64,-0.29 1.4,-0.29 v 0 q 0.72,0 1.26,0.3 0.54,0.29 0.89,0.68 v 0 l -0.57,0.63 q -0.31,-0.33 -0.69,-0.53 -0.37,-0.2 -0.88,-0.2 v 0 q -0.56,0 -1.02,0.22 -0.45,0.22 -0.78,0.64 -0.32,0.41 -0.5,1 -0.18,0.59 -0.18,1.32 v 0 q 0,0.74 0.17,1.34 0.18,0.59 0.49,1.01 0.31,0.42 0.76,0.65 0.45,0.23 1.01,0.23 v 0 q 0.58,0 1.01,-0.23 0.42,-0.23 0.81,-0.65 v 0 L 36.7,-1 q -0.47,0.54 -1.06,0.84 -0.58,0.3 -1.34,0.3 v 0 q -0.74,0 -1.37,-0.27 -0.63,-0.28 -1.1,-0.8 -0.46,-0.52 -0.72,-1.28 -0.25,-0.77 -0.25,-1.73 z M 39.16,0 v -7.87 h 1 v 3.3 h 3.66 v -3.3 h 1.01 V 0 H 43.82 V -3.71 H 40.16 V 0 Z m 12.25,0 v -7.87 h 4.54 v 0.84 h -3.54 v 2.47 h 2.99 v 0.85 h -2.99 v 2.86 h 3.66 V 0 Z m 7.33,0 v -7.87 h 1.03 l 2.84,4.94 0.85,1.63 h 0.05 Q 63.48,-1.9 63.43,-2.54 63.39,-3.18 63.39,-3.8 v 0 -4.07 h 0.95 V 0 H 63.31 L 60.45,-4.96 59.6,-6.58 h -0.05 q 0.05,0.6 0.09,1.22 0.04,0.62 0.04,1.24 v 0 V 0 Z m 8.3,-3.94 v 0 q 0,-0.94 0.27,-1.7 0.27,-0.76 0.76,-1.28 0.49,-0.53 1.15,-0.81 0.66,-0.29 1.45,-0.29 v 0 q 0.81,0 1.36,0.31 0.55,0.31 0.89,0.67 v 0 l -0.56,0.63 q -0.3,-0.31 -0.69,-0.52 -0.39,-0.21 -0.99,-0.21 v 0 q -0.6,0 -1.08,0.22 -0.48,0.22 -0.82,0.64 -0.33,0.41 -0.52,1 -0.18,0.59 -0.18,1.32 v 0 q 0,0.74 0.17,1.34 0.17,0.59 0.5,1.01 0.33,0.42 0.82,0.65 0.49,0.23 1.12,0.23 v 0 q 0.42,0 0.8,-0.13 0.38,-0.12 0.62,-0.34 v 0 -2.05 h -1.67 v -0.83 h 2.58 v 3.31 q -0.38,0.4 -1.01,0.66 -0.63,0.25 -1.43,0.25 v 0 q -0.78,0 -1.42,-0.27 -0.65,-0.28 -1.12,-0.8 -0.47,-0.52 -0.73,-1.28 -0.27,-0.77 -0.27,-1.73 z M 75.9,0 v -7.87 h 1 V 0 Z m 4.16,0 v -7.87 h 1.03 l 2.85,4.94 0.85,1.63 h 0.05 Q 84.8,-1.9 84.76,-2.54 84.72,-3.18 84.72,-3.8 v 0 -4.07 h 0.94 V 0 h -1.03 l -2.85,-4.96 -0.86,-1.62 h -0.04 q 0.04,0.6 0.09,1.22 0.04,0.62 0.04,1.24 v 0 V 0 Z m 8.76,0 v -7.87 h 4.54 v 0.84 h -3.54 v 2.47 h 2.99 v 0.85 h -2.99 v 2.86 h 3.66 V 0 Z" transform="translate(-0.504,8.016)"/></g></g></g></g></svg>